<?xml version="1.0" ?><!DOCTYPE svg  PUBLIC '-//W3C//DTD SVG 1.1//EN'  'http://www.w3.org/Graphics/SVG/1.1/DTD/svg11.dtd'><svg enable-background="new 0 0 512 512" height="512px" version="1.1" viewBox="0 0 512 512" width="512px" xml:space="preserve" xmlns="http://www.w3.org/2000/svg" xmlns:xlink="http://www.w3.org/1999/xlink"><g id="Layer_11"><g><path d="M235.406,326.435L368.86,143.673c28.228-38.7,75.664-122.751,64.48-130.924c-11.21-8.169-76.807,62.614-105.052,101.31    L194.843,296.829L235.406,326.435z"/><path d="M76.986,500.551c0,0,48.566-50.82,52.408-56.089c3.847-5.269,16.552-15.701,16.255-22.278    c-0.296-6.56-9.9-11.681-14.934-10.896c-5.016,0.786-17.66,24.138-16.247,22.278C115.856,431.7,76.986,500.551,76.986,500.551z"/><path d="M134.837,405.164l15.667,11.444l78.464-81.351l-40.571-29.597L134.837,405.164z M195.036,328.293    c13.188-9.631-23.67,38.22-36.969,59.939c-2.813,6.02-4.51,9.928-4.51,9.928c-0.501-1.082,1.344-4.771,4.51-9.928    C166.031,371.136,182.937,337.107,195.036,328.293z"/></g></g></svg>