<?xml version="1.0" ?><!DOCTYPE svg  PUBLIC '-//W3C//DTD SVG 1.0//EN'  'http://www.w3.org/TR/2001/REC-SVG-20010904/DTD/svg10.dtd'><svg enable-background="new 0 0 512 512" id="Layer_1" version="1.0" viewBox="0 0 512 512" xml:space="preserve" xmlns="http://www.w3.org/2000/svg" xmlns:xlink="http://www.w3.org/1999/xlink"><g><g><g><path d="M87.9,229.7c9.7,0,9.7-15,0-15S78.2,229.7,87.9,229.7L87.9,229.7z"/><path d="M263.5,68.1c0-5.2-6.3-10.9-9.6-14.5c-4.4-4.9-9.4-9.1-14.6-13c-10-7.6-21.8-12.9-33.9-16.1c-23.6-6.2-48.8-3-70.5,7.8     c-19.8,9.9-36,27.1-45.3,47.2c-6.8,14.7-9.2,30.2-9.2,46.2c0,28.1,0,56.2,0,84.3c0,3.8,0,7.6,0,11.4c0,9,4.2,16.6,11.7,21.6     c10.5,7.1,25.8,3.1,32.7-7.1c3.4-5,4.3-10.6,4.3-16.5c0-27.7,0-55.4,0-83.1c0-10.8-0.6-21.4,2.8-31.9     c6.7-20.7,27.2-34.2,48.5-34.5c28.3-0.3,51,23.6,51.3,51.3c0.1,9.7,15.1,9.7,15,0c-0.3-23.6-12.6-45.1-32.9-57.3     c-20.4-12.3-46.5-11.7-67,0c-20.4,11.6-32.6,34.1-32.9,57.3c-0.1,8.5,0,17,0,25.6c0,25.1,0,50.2,0,75.3c0,9.2-12.1,12.6-17.1,5.1     c-1.9-2.9-1.5-6.6-1.5-9.8c0-13.2,0-26.5,0-39.7c0-15,0-29.9,0-44.9c0-12,0.1-23.5,3.3-35.2c12.5-44.4,60.1-70,104.1-58.3     c18.7,5,35.4,16.9,46.7,32.6c-0.3-1.3-0.7-2.5-1-3.8c0,0,0,0,0,0C248.5,77.8,263.5,77.8,263.5,68.1L263.5,68.1z"/></g></g><g><g><path d="M390.5,229.7c9.7,0,9.7-15,0-15S380.8,229.7,390.5,229.7L390.5,229.7z"/><path d="M246.7,121.3c0.1-9.6,1.7-18.8,4.7-28c1.5-4.6,3.6-8.9,5.9-13.2c2-3.6,6.2-7.8,6.2-12.1c-0.3,1.3-0.7,2.5-1,3.8     c28.2-39.3,85.6-47.1,123-16.4C402,69.1,413.3,89,416,110.2c1.2,9.8,0.7,20,0.7,29.9c0,26.9,0,53.9,0,80.8     c0,6.4-4.1,10.8-10.7,10.5c-5.8-0.2-7.9-6.3-7.9-11c0-11.6,0-23.2,0-34.9c0-15.6,0-31.3,0-46.9c0-10.6,0.5-21.2-1.6-31.6     c-4.6-22.8-22.3-41.1-43.9-48.6c-22.5-7.9-47.7-1.6-65.4,13.8c-14,12.3-21.6,30.7-21.8,49.2c-0.1,9.7,14.9,9.7,15,0     c0.3-21.7,13.9-41.3,34.5-48.5c20.5-7.2,44.3-0.2,57.6,17.1c8.7,11.4,10.6,24.3,10.6,38.1c0,13.9,0,27.8,0,41.7     c0,14.5,0,28.9,0,43.4c0,3,0,5.9,0,8.9c0,11.2,7.6,20.6,18.3,23.7c12.7,3.7,24.8-4.6,29.2-16.2c1.4-3.8,1.1-8.1,1.1-12.1     c0-13.2,0-26.5,0-39.7c0-15,0-29.9,0-44.9c0-12.4-0.1-24.5-3.2-36.6c-11.3-45.5-55.2-76.7-101.5-74.8c-16,0.7-31.7,5.5-45.6,13.4     c-6.9,4-13.4,9-19.1,14.5c-2.9,2.7-5.5,5.7-8,8.7c-2.3,2.8-5.7,6.2-5.7,10c0.3-1.3,0.7-2.5,1-3.8c-11.6,16.8-17.6,36.6-17.8,57     C231.6,131,246.6,131,246.7,121.3L246.7,121.3z"/></g></g><g><g><path d="M331.6,36.3c9.7,0,9.7-15,0-15S322,36.3,331.6,36.3L331.6,36.3z"/></g></g><g><g><path d="M288.7,272.6c0-16.8,0-33.6,0-50.4c0-9.7-15-9.7-15,0c0,16.8,0,33.6,0,50.4C273.7,282.3,288.7,282.3,288.7,272.6     L288.7,272.6z"/></g></g><g><g><path d="M238.3,272.6c0-16.8,0-33.6,0-50.4c0-9.7-15-9.7-15,0c0,16.8,0,33.6,0,50.4C223.3,282.3,238.3,282.3,238.3,272.6     L238.3,272.6z"/></g></g><g><g><path d="M348.5,162.4c9.7,0,9.7-15,0-15S338.8,162.4,348.5,162.4L348.5,162.4z"/><path d="M156,154.9c0.2,23.5,11.1,45.4,29.8,59.6c14.7,11.2,31.9,15.1,50.1,15.1c14.2,0,28.3,0,42.5,0c19.6,0,37.4-6,52.4-18.8     c16.2-13.8,25-34.9,25.2-56c0.1-9.7-14.9-9.7-15,0c-0.2,22-12,41.7-31.1,52.5c-13.6,7.7-28.2,7.3-43.2,7.3     c-12.4,0-24.9,0.1-37.3,0c-21.8-0.2-41.5-13.3-51.7-32.3c-4.5-8.4-6.6-18-6.7-27.5C170.9,145.3,155.9,145.3,156,154.9L156,154.9z     "/></g></g><g><g><path d="M154.2,148.9c0-6.1,0-12.2,0-18.3c0-1,0-2,0-2.9c0-0.3-0.5,1.2-1.4,1.2c0.5,0,0.9,0,1.4,0c7.3,0,14.7,0,22,0     c29.9,0,59.8,0,89.8,0c27.1,0,54.3,0,81.4,0c3.1,0,6.2,0,9.3,0c0.7,0,1.4,0,2.1,0c0.1,0,0.3,0,0.4,0c-1.1,0-1.4-2.1-1.4-0.9     c0,6.5,0,13.1,0,19.6c0,2.5,0.3-0.1,1.3-0.1c-0.6,0-1.2,0-1.8,0c-53.5,0-107.1,0-160.6,0c-10.7,0-21.3,0-32,0c-2.9,0-5.9,0-8.8,0     c-0.8,0-1.6,0-2.3,0C151.9,147.4,154.1,147.6,154.2,148.9c-0.4-4.1-3.1-7.5-7.5-7.5c-3.8,0-7.9,3.4-7.5,7.5     c0.8,7.9,6.1,13.6,14.4,13.6c2.3,0,4.6,0,6.9,0c10.4,0,20.8,0,31.1,0c31.6,0,63.3,0,94.9,0c23,0,46.1,0,69.1,0     c1.6,0,3.2,0,4.7-0.1c6.5-0.7,11.6-5.7,12.2-12.2c0.3-2.5,0.1-5.1,0.1-7.7c0-6.2,1.6-15.5-1.5-21.2c-2.8-5.2-7.8-7.4-13.5-7.4     c-52.9,0-105.8,0-158.7,0c-14.2,0-28.5,0-42.7,0c-6.8,0-14,1.7-16.4,9.2c-1.3,4.3-0.7,9.2-0.7,13.6c0,4.1,0,8.1,0,12.2     C139.2,158.5,154.2,158.5,154.2,148.9z"/></g></g><g><g><path d="M313.9,339.9c0-11.5,0-23,0-34.6c0-7,0-14.1,0-21.1c0-5.9,0.2-11.7-4.9-15.8c-5.9-4.9-15.5-3.2-22.6-3.2     c-3.5,0-6.9,0-10.4,0c-14.2,0-28.3,0-42.5,0c-7,0-14,0-21,0c-8.3,0-13.8,5.5-14.6,13.6c-0.2,2.2,0,4.5,0,6.7     c0,18.1,0,36.3,0,54.4c0,9.7,15,9.7,15,0c0-11.5,0-23,0-34.6c0-7,0-14.1,0-21.1c0-1.7,0-3.3,0-5c0-1,0.2-0.2-0.4,0.5     c-0.4,0.5-1.5,0.4-0.7,0.4c0.6,0,1.2,0,1.9,0c22.5,0,45,0,67.5,0c3.7,0,7.3,0,11,0c2,0,4,0,6,0c3.3,0,0.9,0.4,0.7-1.4     c0.5,5.3,0,10.9,0,16.2c0,15,0,30,0,45C298.9,349.6,313.9,349.6,313.9,339.9L313.9,339.9z"/></g></g><g><g><path d="M63.5,373.5c0.4,41,33.7,74.3,74.8,74.8c9.7,0.1,9.7-14.9,0-15c-32.8-0.3-59.4-26.9-59.8-59.8     C78.5,363.8,63.5,363.8,63.5,373.5L63.5,373.5z"/><path d="M385.2,448c36.6-5,63.8-37.3,64.2-73.9c0.1-9.7-14.9-9.7-15,0c-0.3,30.6-23.1,55.3-53.2,59.5c-4.1,0.6-6.2,5.7-5.2,9.2     C377.2,447.1,381.2,448.5,385.2,448L385.2,448z"/></g></g><g><g><path d="M60.3,347.4c35.1,0,70.2,0,105.3,0c64.1,0,128.1,0,192.2,0c23.5,0,47.1,0,70.6,0c6.3,0,12.5,0,18.8,0c1.3,0,2.7,0,4,0     c0.2,0,0.3,0,0.5,0c-1.4,0-1.4-2.4-1.4-0.5c0,1.6,0,3.1,0,4.7c0,3.7,0,7.4,0,11.2c0,1.3,0,2.6,0,3.8c0,1.9,0-0.5,1.4-0.5     c-0.7,0-1.5,0-2.2,0c-5.2,0-10.5,0-15.7,0c-22.2,0-44.3,0-66.5,0c-63.8,0-127.7,0-191.5,0c-38.3,0-76.6,0-114.9,0     c-0.8,0-0.1-0.2,0.6,0.4c0.8,0.7,0.4,1.4,0.4-0.3c0-1.4,0-2.8,0-4.2c0-3.7,0-7.4,0-11.2c0-1.3,0-2.6,0-3.8     C61.7,345,61.7,347.2,60.3,347.4c4.1-0.4,7.5-3.1,7.5-7.5c0-3.8-3.4-7.9-7.5-7.5c-6.5,0.7-11.2,4-13.2,10.4     c-0.8,2.6-0.4,6.1-0.4,8.8c0,6.4-1.2,14.1,0.7,20.2c2.6,8.4,10.6,9.2,17.8,9.2c16.8,0,33.7,0,50.5,0c61.8,0,123.6,0,185.4,0     c47.7,0,95.4,0,143.1,0c3.2,0,7.5,0.6,10.6-0.4c10.1-3.1,10.4-11.8,10.4-20.6c0-6.8,1.3-15.1-2.1-21.3c-3.6-6.6-10.7-6.4-17-6.4     c-6.6,0-13.2,0-19.8,0c-56,0-111.9,0-167.9,0c-56.7,0-113.5,0-170.2,0c-9.3,0-18.7,0-28,0C50.7,332.4,50.7,347.4,60.3,347.4z"/></g></g><g><g><path d="M114,289.4c-0.5,12-18.1,12-18.6,0C94.9,277.4,113.5,277.5,114,289.4c0.4,9.6,15.4,9.7,15,0     c-0.6-13.6-10.7-23.8-24.3-24.3c-13.6-0.5-23.8,11.5-24.3,24.3c-0.5,13.6,11.5,23.8,24.3,24.3c13.6,0.5,23.8-11.5,24.3-24.3     C129.4,279.8,114.4,279.8,114,289.4z"/></g></g><g><g><path d="M416.6,289.4c-0.5,12-18.1,12-18.6,0C397.5,277.4,416.1,277.5,416.6,289.4c0.4,9.6,15.4,9.7,15,0     c-0.6-13.6-10.7-23.8-24.3-24.3c-13.6-0.5-23.8,11.5-24.3,24.3c-0.5,13.6,11.5,23.8,24.3,24.3c13.6,0.5,23.8-11.5,24.3-24.3     C432,279.8,417,279.8,416.6,289.4z"/></g></g><g><g><path d="M468.5,448.3c9.7,0,9.7-15,0-15S458.8,448.3,468.5,448.3L468.5,448.3z"/><path d="M44.9,466.8c0-6.2,0-12.3,0-18.5c0-2.7-0.8-0.1-1.1-0.1c1.3,0,2.5,0,3.8,0c13.3,0,26.5,0,39.8,0c18.1,0,36.2,0,54.2,0     c53.7,0,107.4,0,161,0c39.3,0,78.6,0,117.9,0c14.3,0,28.6,0,42.8,0c1.5,0,2.9,0,4.4,0c0.2,0,0.4,0,0.6,0c-1.4,0-1.4-2.5-1.4-0.4     c0,6.3,0,12.6,0,19c0,9.7,15,9.7,15,0c0-11.7,3.6-33.5-14.1-33.5c-10.6,0-21.2,0-31.7,0c-21.2,0-42.3,0-63.5,0     c-50.7,0-101.4,0-152.2,0c-39.1,0-78.2,0-117.4,0c-18.2,0-36.4,0-54.7,0c-8,0-15.4,1.4-18.2,10.4c-1.1,3.6-0.4,8.5-0.4,12.2     c0,3.7,0,7.3,0,11C29.9,476.5,44.9,476.5,44.9,466.8L44.9,466.8z"/></g></g><g><g><path d="M474.6,459.3c-32.4,0-64.7,0-97.1,0c-64.1,0-128.2,0-192.3,0c-46.2,0-92.5,0-138.7,0c-3,0-6,0-9,0c-9.7,0-9.7,15,0,15     c32.4,0,64.7,0,97.1,0c64.1,0,128.2,0,192.3,0c46.2,0,92.5,0,138.7,0c3,0,6,0,9,0C484.2,474.3,484.2,459.3,474.6,459.3     L474.6,459.3z"/></g></g></g></svg>