<?xml version="1.0" standalone="no"?>
<!DOCTYPE svg PUBLIC "-//W3C//DTD SVG 20010904//EN"
 "http://www.w3.org/TR/2001/REC-SVG-20010904/DTD/svg10.dtd">
<svg version="1.0" xmlns="http://www.w3.org/2000/svg"
 width="379.000000pt" height="340.000000pt" viewBox="0 0 379.000000 340.000000"
 preserveAspectRatio="xMidYMid meet">
<metadata>
Created by potrace 1.15, written by Peter Selinger 2001-2017
</metadata>
<g transform="translate(0.000000,340.000000) scale(0.100000,-0.100000)"
fill="#000000" stroke="none">
<path d="M2860 3385 c-7 -9 -21 -13 -34 -9 -26 6 -76 -29 -76 -54 0 -15 2 -15
11 -2 9 12 10 12 5 -3 -3 -10 -6 -24 -6 -30 0 -7 -4 -6 -10 3 -7 11 -10 12
-10 2 0 -8 14 -27 31 -44 27 -27 29 -34 20 -55 -12 -27 -4 -50 26 -74 16 -13
17 -12 5 3 -11 14 -8 14 25 -3 41 -21 112 -25 146 -8 22 10 22 10 2 -6 -15
-13 -34 -16 -83 -12 -34 3 -64 2 -66 -2 -3 -4 26 -8 63 -9 82 -3 121 20 121
69 0 22 10 40 35 63 41 39 45 73 13 110 -25 27 -74 42 -81 23 -2 -6 -6 -3 -10
7 -4 10 -3 15 3 11 17 -10 11 12 -7 26 -15 12 -16 12 -8 -1 6 -12 5 -13 -6 -2
-7 6 -27 12 -44 12 -17 0 -37 -6 -44 -12 -11 -10 -13 -10 -7 0 10 17 1 15 -14
-3z"/>
<path d="M567 3352 c-15 -15 -27 -36 -27 -45 0 -9 -7 -17 -15 -17 -9 0 -27
-11 -41 -26 -20 -19 -24 -31 -19 -52 8 -35 43 -72 67 -72 12 0 18 -7 18 -21 0
-11 13 -34 29 -50 32 -32 71 -37 128 -16 40 15 93 62 93 83 0 22 -20 55 -29
50 -5 -3 -16 3 -26 14 -26 29 -77 43 -109 30 -18 -6 -25 -6 -21 0 3 6 1 10 -4
10 -6 0 -11 -8 -12 -17 0 -14 -2 -13 -9 4 -12 29 -46 46 -78 39 -20 -5 -23 -4
-12 4 8 5 23 10 33 10 11 0 17 8 17 23 0 30 39 67 70 67 13 0 33 -8 44 -17 21
-18 21 -18 2 5 -26 31 -66 28 -99 -6z"/>
<path d="M2467 3355 c-24 -23 -26 -31 -21 -68 4 -23 10 -51 15 -63 5 -13 3
-21 -4 -21 -7 0 -12 13 -13 28 -2 50 -11 62 -48 57 -19 -2 -32 0 -29 5 3 5 20
7 38 5 19 -2 31 0 29 4 -13 20 -63 7 -88 -23 -33 -38 -33 -69 -1 -99 17 -16
25 -34 25 -56 0 -24 8 -39 31 -58 35 -30 57 -33 85 -10 18 15 18 15 -3 5 -32
-16 -48 -14 -74 10 l-24 20 27 -17 c20 -11 36 -14 55 -8 16 4 31 7 36 6 4 -1
4 10 0 25 -4 16 -7 38 -8 51 0 25 -1 25 -73 22 -39 -1 -58 3 -73 16 -19 17
-26 59 -10 68 4 3 6 -6 3 -19 -8 -42 14 -56 77 -52 36 3 66 -1 85 -10 25 -13
34 -13 73 2 55 21 79 54 63 87 -11 22 -10 22 4 4 21 -27 21 -30 -15 -73 l-32
-38 37 37 c20 21 36 42 36 46 0 37 -118 142 -159 142 -9 0 -29 -11 -44 -25z"/>
<path d="M901 3344 c-34 -28 -40 -64 -16 -84 14 -12 13 -15 -5 -35 -11 -12
-20 -28 -20 -36 0 -12 2 -12 10 1 7 12 10 8 10 -15 0 -23 -3 -27 -10 -15 -8
13 -10 13 -10 -2 0 -16 53 -68 70 -68 4 0 24 -16 44 -36 28 -28 40 -34 58 -29
31 10 68 45 67 64 0 11 -3 10 -9 -4 -18 -47 -68 -64 -101 -35 l-24 21 27 -16
c37 -23 81 -3 88 40 3 17 9 29 13 28 30 -11 98 35 96 65 0 12 -3 11 -9 -5 -14
-35 -54 -55 -92 -48 -18 4 -45 9 -59 12 -15 3 -30 0 -33 -6 -4 -6 -12 -11 -19
-11 -6 0 -1 7 12 16 20 15 30 15 78 5 47 -11 57 -11 80 4 23 16 25 22 21 71
-3 31 -1 49 3 42 5 -7 9 -24 10 -38 2 -23 2 -23 6 -3 8 41 -61 143 -98 143 -9
0 -27 -9 -40 -21 l-24 -21 25 16 c34 22 53 20 76 -6 19 -23 19 -23 -2 -5 -27
22 -45 22 -78 -4 l-27 -21 -23 21 c-27 25 -53 27 -86 5 l-25 -16 24 21 c29 26
63 27 86 1 10 -11 23 -20 29 -20 21 0 -49 49 -71 50 -12 0 -35 -12 -52 -26z"/>
<path d="M578 3343 c-9 -10 -18 -30 -20 -45 -4 -22 -1 -28 19 -33 13 -3 22 -9
19 -13 -3 -4 6 -8 18 -7 24 0 59 23 52 34 -6 9 22 46 29 39 3 -3 -1 -12 -8
-20 -10 -10 -12 -20 -5 -31 7 -13 5 -16 -9 -12 -10 3 0 -3 22 -14 44 -21 66
-25 81 -13 5 4 2 0 -8 -9 -9 -9 -15 -19 -11 -22 3 -3 16 7 29 22 24 29 32 47
15 37 -5 -3 -11 8 -13 24 -5 36 -1 39 12 8 7 -19 9 -20 9 -5 1 21 -51 77 -71
77 -7 0 -20 -5 -28 -10 -11 -8 -9 -9 10 -5 15 4 33 0 45 -10 20 -16 20 -16 0
-7 -11 6 -36 9 -55 7 -19 -1 -44 4 -55 11 -27 19 -59 18 -77 -3z"/>
<path d="M1294 3349 c-17 -5 -38 -16 -45 -26 -13 -15 -12 -15 12 1 39 25 119
32 144 11 19 -16 19 -16 -4 -4 -27 13 -100 6 -134 -13 -12 -7 -28 -12 -35 -13
-32 -1 -43 -64 -15 -86 15 -12 16 -12 8 1 -4 8 5 3 21 -12 41 -38 81 -51 116
-39 18 6 26 7 23 1 -5 -8 10 -15 18 -8 1 2 13 -5 27 -15 32 -22 53 -22 75 3
12 13 15 27 11 47 -5 21 -4 24 4 13 5 -8 10 -22 10 -31 0 -19 -38 -55 -65 -62
-19 -5 -19 -5 1 -6 23 -1 74 47 74 70 -1 18 -26 65 -34 62 -3 -2 -21 -2 -38
-2 l-33 2 35 7 c35 7 35 7 5 9 -25 1 -30 5 -32 28 -3 58 -69 85 -149 62z"/>
<path d="M3214 3250 c-12 -5 -25 -13 -28 -19 -4 -6 6 -4 21 4 37 20 124 19
149 -1 18 -15 18 -15 -3 -5 -29 14 -105 14 -140 -1 -15 -6 -33 -10 -39 -10
-17 3 -32 -40 -23 -66 5 -13 13 -21 18 -17 5 3 16 -3 23 -13 40 -55 104 -67
144 -27 31 32 45 33 16 2 -12 -13 -19 -27 -15 -31 4 -4 0 -4 -10 0 -33 12 -17
-6 23 -26 41 -21 69 -25 86 -12 5 4 1 -1 -9 -10 -11 -10 -15 -18 -10 -18 18 0
53 47 53 71 0 35 -10 45 -55 57 -40 12 -40 12 -5 8 34 -4 34 -4 8 7 -21 8 -26
17 -26 40 2 47 -40 77 -105 76 -29 0 -62 -4 -73 -9z"/>
<path d="M1213 3180 c-24 -29 -29 -65 -14 -89 10 -15 25 -20 76 -26 17 -2 41
-6 55 -10 78 -21 102 -11 112 47 4 23 0 28 -36 42 -24 10 -44 12 -49 7 -6 -6
-28 -1 -55 10 -37 16 -52 18 -72 9 l-25 -10 23 19 c12 11 19 22 15 24 -5 2
-18 -8 -30 -23z"/>
<path d="M317 3170 c-14 -11 -28 -33 -32 -50 -4 -19 -13 -30 -27 -32 -22 -3
-52 -39 -62 -74 -7 -24 36 -84 60 -84 8 0 14 -7 14 -16 0 -24 56 -74 82 -74
14 0 37 13 53 30 16 17 25 30 19 30 -5 0 -14 11 -21 25 -6 14 -7 25 -3 25 5 0
11 -8 15 -19 3 -10 14 -26 25 -36 17 -15 24 -16 48 -6 25 10 26 10 8 -4 -24
-18 -38 -19 -56 -2 -12 10 -12 9 -1 -5 19 -25 38 -22 72 11 35 36 37 70 4 101
l-24 23 19 25 c11 13 20 30 20 38 0 16 -50 75 -59 70 -4 -3 -31 2 -60 11 -42
12 -59 13 -80 4 -24 -11 -25 -10 -7 4 25 19 42 19 97 0 24 -9 39 -12 34 -7
-13 12 -73 32 -95 32 -10 0 -29 -9 -43 -20z"/>
<path d="M1556 3117 c-37 -39 -96 -57 -97 -29 0 14 -2 14 -6 2 -10 -27 -46
-60 -65 -60 -11 0 -29 5 -40 11 -11 6 -18 7 -15 1 7 -11 -34 -32 -54 -28 -8 2
-27 6 -42 11 -17 4 -39 3 -54 -4 -25 -11 -25 -11 -12 6 12 16 11 16 -9 -1 -12
-11 -22 -24 -22 -31 0 -6 -18 -26 -40 -44 -30 -24 -40 -39 -39 -59 l2 -27 4
27 c5 33 48 69 70 61 11 -4 14 -2 9 5 -4 7 -3 20 3 29 8 15 9 12 7 -12 -3 -26
2 -32 35 -46 21 -10 47 -15 58 -12 11 3 34 -2 52 -11 39 -19 60 -20 79 -3 11
10 11 8 0 -8 -15 -20 -14 -20 8 -1 57 49 -12 141 -79 105 -11 -5 -22 -24 -26
-40 -4 -21 -8 -26 -14 -18 -11 19 25 65 61 78 20 6 28 7 25 0 -10 -15 46 1 67
18 16 14 17 13 11 -21 -4 -27 -1 -42 12 -56 17 -19 17 -21 2 -38 -25 -28 -20
-57 14 -86 38 -33 66 -33 99 -1 l27 25 18 -20 c23 -26 46 -25 81 3 16 12 31
20 34 17 3 -3 16 17 29 44 29 58 22 91 -26 121 -19 12 -32 29 -33 41 0 21 -30
54 -67 73 -30 15 -32 15 -67 -22z"/>
<path d="M2786 3086 c-65 -33 -116 -83 -116 -116 0 -16 12 -37 30 -55 17 -16
30 -25 30 -21 0 4 -10 16 -22 26 -17 14 -8 12 29 -6 60 -30 102 -26 132 12 15
20 20 21 25 8 3 -8 2 -12 -3 -9 -5 3 -12 1 -16 -5 -3 -5 -3 -10 2 -11 4 0 27
-3 51 -5 28 -3 50 0 60 8 16 12 16 11 2 -6 -12 -16 -24 -18 -76 -13 -41 4 -69
2 -86 -7 -16 -8 -31 -10 -39 -5 -26 17 -81 6 -91 -17 -12 -25 -4 -59 11 -49 5
3 13 0 17 -6 4 -8 3 -9 -4 -5 -19 11 -14 -9 6 -27 24 -22 66 -22 83 1 11 14
11 15 -1 5 -16 -14 -66 -17 -74 -5 -3 5 8 6 25 4 16 -2 35 0 42 6 8 7 20 6 37
-3 37 -21 74 -18 96 8 19 22 19 22 -2 5 -57 -48 -145 13 -103 72 8 11 9 6 4
-22 -5 -30 -2 -39 14 -47 28 -15 66 -13 81 4 6 8 17 13 23 12 7 -1 13 12 14
28 2 28 1 28 -6 5 l-7 -25 -6 27 c-3 15 -1 25 4 22 15 -10 70 54 66 78 -2 13
-8 23 -15 23 -6 0 -15 4 -20 9 -5 5 -3 6 5 2 19 -11 14 9 -8 29 -14 12 -28 16
-50 12 -21 -5 -30 -3 -30 7 0 19 -27 39 -57 42 -33 4 -78 -15 -123 -50 -31
-25 -31 -24 4 8 21 19 55 40 75 47 20 6 40 15 46 20 16 16 -8 9 -59 -15z"/>
<path d="M2029 3067 c-53 -41 -52 -146 3 -204 21 -22 72 -31 82 -15 2 4 -10 6
-27 4 -25 -3 -37 2 -52 20 l-20 23 21 -17 c24 -21 65 -23 83 -5 7 6 12 8 11 2
-4 -21 1 -30 9 -17 7 11 9 10 14 -3 4 -9 3 -13 -3 -10 -17 11 -11 -11 8 -28
29 -26 70 -21 103 12 16 16 29 38 28 48 0 16 -1 16 -9 -2 -7 -16 -9 -17 -9 -3
-1 9 10 29 23 45 53 63 54 86 5 128 -12 11 -19 14 -14 6 6 -11 4 -13 -10 -7
-12 4 -32 0 -51 -10 -31 -17 -34 -17 -92 9 -36 16 -67 24 -78 20 -12 -4 -15
-3 -10 5 9 15 5 15 -15 -1z"/>
<path d="M829 3009 l-24 -20 27 16 c24 15 29 15 55 1 15 -8 24 -15 20 -16 -5
0 -17 5 -28 11 -15 8 -26 7 -42 -4 -12 -8 -32 -13 -44 -12 -12 1 -19 -3 -16
-8 3 -5 0 -8 -8 -5 -8 3 -14 11 -14 19 0 26 -33 20 -69 -11 -41 -36 -45 -64
-16 -95 18 -20 19 -23 5 -35 -40 -34 1 -120 57 -120 16 0 38 -12 56 -30 38
-38 53 -38 97 1 29 26 35 37 30 58 -4 20 -1 28 16 36 13 6 32 22 43 37 20 28
20 28 0 75 -11 27 -25 48 -31 48 -6 0 -15 4 -20 9 -5 5 -2 6 6 1 29 -17 4 20
-29 43 -40 27 -42 27 -71 1z"/>
<path d="M2460 2988 c-38 -14 -60 -39 -60 -67 0 -19 -9 -30 -33 -41 -46 -22
-60 -56 -44 -111 7 -24 18 -44 24 -44 6 0 15 -4 20 -9 5 -5 3 -6 -4 -2 -22 12
-14 -7 14 -36 33 -34 73 -37 99 -5 19 22 19 22 -2 5 -28 -25 -67 -22 -90 5
-19 22 -19 22 2 5 25 -22 67 -23 84 -3 11 13 16 12 42 -10 37 -31 53 -31 95 1
37 28 45 72 18 94 -14 12 -13 15 5 35 11 12 20 32 20 45 0 29 -46 80 -73 80
-10 0 -28 11 -39 25 -27 35 -49 44 -78 33z"/>
<path d="M3487 2960 c-15 -17 -35 -30 -49 -30 -30 0 -78 -45 -78 -73 0 -12 7
-33 16 -45 15 -21 15 -25 0 -41 -24 -27 -19 -56 15 -85 35 -30 57 -33 85 -10
18 15 18 15 -3 5 -32 -16 -48 -14 -74 10 l-24 20 29 -17 c22 -14 34 -16 57 -7
24 9 33 7 60 -13 18 -13 44 -24 57 -24 18 0 23 -4 18 -16 -3 -9 -6 -20 -6 -25
0 -5 -10 -9 -22 -10 -19 -1 -18 -2 7 -10 17 -5 45 -16 62 -26 31 -17 34 -17
62 0 36 21 55 22 72 0 13 -15 12 -15 -8 -3 -18 12 -26 12 -47 0 -14 -7 -24
-16 -21 -18 3 -3 -3 -14 -12 -24 -16 -18 -16 -20 12 -44 20 -16 39 -23 57 -21
15 2 25 0 22 -5 -3 -4 -12 -8 -20 -8 -10 0 -12 -5 -7 -12 4 -7 -5 -5 -20 5
-36 23 -49 22 -80 -11 l-28 -29 21 -26 c12 -15 31 -27 44 -27 30 0 64 26 69
53 4 22 4 22 6 0 1 -26 -42 -63 -74 -63 -13 0 -34 13 -47 29 -23 26 -26 28
-49 14 -24 -14 -24 -14 -1 -8 17 5 30 0 49 -19 33 -33 63 -33 103 0 23 20 30
34 28 54 -1 15 3 34 10 43 8 9 12 36 11 67 -2 40 -8 55 -26 70 -13 10 -23 25
-23 33 0 8 -8 21 -17 28 -15 11 -16 11 -5 -1 6 -8 11 -23 11 -34 -1 -21 -1
-21 -6 -1 -3 11 -12 28 -22 39 -9 10 -15 21 -14 25 2 3 -15 6 -36 6 -22 0 -37
-4 -34 -8 3 -5 22 -6 42 -3 32 5 33 4 11 -5 -27 -11 -106 -4 -130 12 -10 6 -4
7 18 3 27 -6 39 -2 65 22 27 25 29 26 12 4 l-20 -25 26 23 c15 13 35 41 44 63
24 51 12 88 -32 109 -26 12 -33 21 -33 45 0 28 -5 32 -46 44 -57 17 -78 7 -82
-37 -4 -44 30 -65 80 -51 27 7 45 6 70 -4 32 -13 32 -13 -27 -9 -54 4 -63 1
-96 -25 -32 -25 -34 -31 -28 -63 l7 -35 -20 28 c-11 15 -27 27 -37 27 -27 0
-61 -29 -62 -53 -1 -18 -2 -19 -6 -4 -3 10 3 27 12 37 9 10 14 23 11 28 -3 6
2 8 13 5 26 -7 85 13 105 36 15 16 15 19 1 24 -8 4 -15 1 -15 -5 0 -27 -13 5
-17 42 -8 66 33 97 90 69 21 -10 21 -10 3 5 -30 24 -62 19 -89 -14z"/>
<path d="M1101 2933 c-18 -12 -22 -23 -19 -49 2 -18 0 -30 -4 -28 -4 3 -8 1
-8 -4 0 -13 62 -24 84 -16 13 5 16 -1 16 -34 0 -31 5 -45 22 -56 22 -16 22
-16 -10 -16 -18 0 -31 -4 -27 -9 3 -5 1 -12 -5 -16 -5 -3 -10 -16 -11 -28 0
-12 -3 -16 -6 -9 -2 6 -10 9 -16 5 -7 -3 -4 3 7 15 10 12 16 28 12 37 -4 10
-2 14 5 9 7 -4 10 -1 7 7 -3 8 -11 14 -19 15 -8 0 -24 4 -37 8 -16 5 -32 2
-50 -10 -23 -15 -25 -15 -14 -1 20 23 48 30 74 17 22 -11 22 -10 4 4 -11 9
-25 16 -32 16 -18 0 -74 -50 -74 -66 0 -8 -7 -14 -16 -14 -8 0 -29 -13 -45
-30 -24 -23 -28 -35 -23 -57 7 -31 47 -73 70 -73 9 0 14 -10 14 -28 0 -34 40
-76 67 -69 15 4 15 5 -3 6 -12 0 -28 9 -35 19 -11 14 -11 15 1 5 8 -7 39 -13
71 -13 44 0 64 6 95 26 21 15 32 19 24 10 -18 -23 -64 -46 -90 -46 -27 0 -110
-77 -110 -102 0 -10 -6 -18 -14 -18 -7 0 -20 -7 -27 -17 -13 -15 -12 -15 8 -3
19 12 30 12 76 -3 29 -9 67 -17 82 -17 16 0 43 -5 61 -12 36 -13 59 -2 74 37
7 16 9 17 9 3 1 -9 -3 -20 -9 -23 -6 -3 3 -20 20 -38 16 -18 30 -36 30 -40 0
-5 5 -5 10 -2 6 4 1 15 -12 26 -22 19 -22 19 -2 8 18 -10 31 -10 70 3 33 10
51 12 56 5 4 -6 20 -4 47 7 53 21 85 20 102 -1 13 -16 12 -17 -3 -4 -10 7 -28
11 -40 8 -13 -3 -34 -8 -47 -11 -34 -8 -36 -13 -18 -34 29 -31 19 -32 -12 -1
-42 41 -81 37 -140 -15 -13 -11 -20 -14 -16 -6 7 13 6 13 -7 2 -33 -27 -29
-53 15 -98 78 -77 163 -80 197 -7 8 18 21 33 28 33 25 0 72 57 72 87 0 30 -35
73 -58 73 -7 0 -12 9 -12 19 0 11 -12 33 -26 48 -15 15 -21 20 -14 10 12 -17
11 -17 -13 -6 -22 10 -33 10 -54 -1 -16 -7 -34 -12 -41 -11 -10 2 -9 -5 3 -26
l17 -28 -22 28 c-37 46 -80 34 -101 -30 l-9 -28 4 29 c4 31 -15 69 -49 98 -26
22 -49 22 -66 1 -11 -15 -11 -16 1 -5 21 18 45 15 66 -10 19 -23 19 -23 -2 -5
-23 19 -50 22 -60 6 -4 -7 -16 -2 -33 14 -14 13 -35 28 -46 32 -17 7 -14 9 17
15 44 8 82 32 104 64 14 22 14 27 0 54 -14 28 -14 30 9 52 14 13 25 33 24 44
0 21 -1 21 -9 1 -7 -16 -9 -17 -9 -3 -1 9 -4 25 -7 35 -4 13 -3 14 4 5 7 -11
10 -11 15 2 4 9 14 16 24 16 26 0 79 35 98 64 16 24 16 28 -2 58 -11 18 -26
33 -34 34 -8 0 -29 8 -48 18 -37 19 -73 15 -106 -12 -20 -17 -20 -17 -1 5 18
22 18 23 -8 33 -15 5 -35 14 -45 20 -13 6 -25 4 -40 -7z"/>
<path d="M128 2871 c-22 -23 -47 -41 -54 -41 -16 0 -64 -57 -64 -76 0 -7 14
-28 31 -46 l31 -33 -26 33 c-27 35 -33 57 -17 66 5 4 7 -2 4 -12 -2 -10 4 -29
15 -42 18 -23 22 -23 62 -11 37 11 42 15 37 37 -3 18 -1 22 6 15 7 -7 7 -21 0
-43 -7 -25 -6 -39 5 -58 13 -21 11 -21 -10 4 -21 25 -29 28 -54 22 -16 -4 -31
-8 -34 -8 -14 0 -30 -23 -30 -43 0 -26 52 -75 79 -75 10 0 28 12 42 28 l24 27
-26 -22 c-31 -28 -49 -29 -83 -2 -18 14 -26 29 -25 47 l2 27 4 -27 c5 -30 36
-58 64 -58 10 0 27 12 38 26 12 15 21 21 21 15 0 -7 4 -10 9 -7 5 3 14 -1 21
-9 18 -22 60 -18 89 8 l26 22 -24 -27 c-28 -32 -65 -36 -95 -10 -21 17 -21 17
-2 -5 30 -36 68 -30 109 16 48 53 66 113 46 150 -8 14 -28 33 -46 41 -19 9
-33 25 -36 40 -8 35 -80 56 -117 34 l-25 -15 24 21 c16 14 31 18 45 14 51 -16
52 -16 36 -6 -42 27 -59 24 -102 -17z"/>
<path d="M3109 2893 c-13 -17 -12 -17 4 -4 16 13 23 12 53 -4 19 -10 32 -20
30 -22 -2 -3 -16 3 -29 12 -18 12 -31 14 -44 7 -10 -5 -23 -7 -29 -5 -8 2 -10
-14 -8 -49 2 -35 1 -45 -4 -28 -9 29 -47 38 -84 20 -22 -11 -22 -11 -3 5 12
10 33 15 53 13 20 -3 32 0 32 8 0 17 -76 1 -100 -21 -24 -22 -27 -77 -5 -95
14 -12 13 -15 -5 -32 -29 -27 -25 -62 11 -92 35 -30 57 -33 85 -10 18 15 18
15 -3 5 -32 -16 -48 -14 -74 10 l-24 20 29 -17 c22 -14 34 -15 55 -7 24 9 32
6 59 -19 42 -37 64 -35 113 9 91 82 93 159 6 192 -21 8 -27 17 -26 38 l1 28 8
-30 8 -30 1 32 c1 27 -6 37 -36 58 -44 30 -56 31 -74 8z"/>
<path d="M1802 2867 c-22 -23 -30 -43 -13 -33 4 3 6 -6 3 -19 -2 -14 -8 -27
-12 -30 -4 -2 -5 7 -2 21 2 14 1 24 -4 23 -5 -1 -24 -1 -42 0 -24 1 -31 5 -26
13 5 7 -5 3 -20 -10 -36 -28 -53 -28 -85 1 l-26 22 24 -27 c18 -21 32 -27 57
-25 17 1 31 5 29 8 -2 3 14 6 35 7 21 2 41 -1 44 -6 3 -5 -6 -7 -19 -4 -14 2
-33 1 -42 -4 -10 -4 -22 -8 -26 -8 -12 -2 -27 -29 -27 -52 0 -11 10 -30 23
-42 18 -17 22 -30 19 -53 -3 -23 2 -37 24 -60 27 -28 76 -40 88 -21 2 4 -10 6
-27 4 -25 -3 -37 2 -52 20 l-20 23 21 -17 c24 -21 67 -24 82 -5 5 6 11 29 14
49 4 42 -3 48 -57 48 -36 0 -51 -13 -58 -50 l-4 -25 -2 25 c0 15 4 31 11 38 9
9 8 12 -4 12 -8 0 -22 8 -29 18 -12 15 -12 16 1 5 9 -7 39 -12 68 -11 33 0 62
-6 78 -17 27 -18 67 -14 117 11 15 8 27 12 27 10 0 -3 -12 -12 -27 -20 -16 -8
-22 -15 -15 -16 8 0 27 13 43 30 33 33 33 52 -4 103 -26 39 -95 87 -122 87
-12 0 -31 -10 -43 -23z"/>
<path d="M563 2754 c15 -8 27 -17 27 -20 0 -2 -8 0 -18 5 -20 11 -58 5 -81
-13 -12 -8 -13 -8 -7 2 4 7 18 17 30 22 16 7 17 9 4 9 -9 1 -26 -11 -37 -26
-12 -16 -25 -33 -31 -40 -6 -8 -5 -13 3 -17 7 -4 0 -4 -14 -1 -14 2 -35 -2
-47 -11 -12 -8 -22 -13 -22 -9 0 3 15 14 33 25 17 11 27 20 20 20 -22 0 -72
-51 -78 -80 -10 -46 4 -107 33 -141 23 -29 29 -31 69 -25 33 4 45 2 49 -9 4
-8 10 -15 16 -15 5 0 1 11 -9 24 -13 18 -22 22 -35 15 -27 -14 -65 -10 -79 9
-11 14 -11 15 1 5 26 -24 70 -15 106 21 19 19 44 38 56 42 16 5 18 8 7 15 -8
4 -16 4 -19 -1 -3 -6 -6 7 -6 28 -1 34 0 35 9 12 5 -14 23 -36 40 -48 29 -20
33 -21 57 -6 l25 16 -25 -25 c-19 -18 -29 -22 -42 -15 -10 5 -18 13 -18 19 0
13 -50 -14 -73 -38 -17 -19 -16 -21 4 -47 18 -23 27 -27 53 -22 66 13 78 21
74 55 -1 19 7 39 25 60 34 41 34 54 0 89 -19 19 -22 20 -8 3 l20 -24 -32 23
c-28 20 -36 22 -58 12 -15 -7 -24 -16 -20 -21 3 -5 0 -13 -6 -17 -8 -4 -9 -3
-5 4 4 8 0 12 -11 12 -10 0 -31 9 -48 20 -16 11 -25 20 -19 20 5 0 19 -7 30
-15 25 -19 48 -19 64 0 7 8 21 15 31 15 14 0 17 6 13 28 -5 28 -46 72 -67 72
-7 -1 0 -8 16 -16z"/>
<path d="M1485 2763 c-29 -7 -65 -43 -65 -65 0 -13 -7 -18 -25 -18 -30 0 -75
-41 -74 -67 0 -14 2 -13 9 5 5 12 11 22 12 22 2 0 1 -26 -1 -57 -3 -32 -7 -47
-9 -33 -2 14 -7 29 -12 34 -5 5 -4 -9 1 -30 4 -22 9 -42 9 -46 0 -16 63 -78
79 -78 10 0 26 7 37 15 17 13 16 13 -14 2 -29 -10 -34 -9 -55 13 -18 20 -19
22 -1 7 29 -24 48 -21 91 15 21 18 33 26 26 18 -9 -9 -9 -19 -2 -33 9 -15 8
-18 -1 -12 -8 5 -11 3 -8 -6 3 -8 16 -20 30 -28 21 -12 30 -12 57 -1 17 7 30
15 28 17 -3 2 -16 -2 -31 -8 -20 -9 -31 -9 -48 0 -13 6 -15 9 -5 6 10 -2 38 1
62 7 47 13 62 36 44 70 -8 15 -5 25 15 49 14 17 26 37 26 44 0 19 -47 73 -69
80 -11 3 -22 16 -25 28 -3 12 -16 28 -28 36 l-23 14 23 -25 c12 -13 22 -32 22
-41 0 -9 6 -17 14 -17 8 0 28 -12 43 -26 l28 -25 -33 22 c-28 20 -36 22 -53
10 -12 -7 -23 -10 -26 -7 -3 3 1 8 9 11 22 9 10 53 -18 72 -13 8 -21 19 -18
24 3 5 4 8 2 8 -2 -1 -12 -3 -23 -6z"/>
<path d="M2055 2750 c-14 -6 -8 -7 20 -4 34 5 44 2 60 -18 l20 -23 -22 18
c-31 27 -111 15 -119 -18 -3 -13 -3 -32 0 -43 4 -13 1 -22 -8 -25 -8 -3 -22
-20 -31 -37 -18 -35 -11 -55 35 -93 16 -14 30 -32 30 -40 0 -9 14 -27 31 -41
23 -20 37 -24 57 -20 39 10 43 18 5 11 -24 -5 -38 -1 -55 14 l-23 20 26 -15
c19 -12 33 -13 57 -7 18 5 32 7 32 3 1 -4 8 5 16 21 20 38 52 37 46 -2 -5 -38
11 -66 40 -69 34 -2 83 16 104 39 15 17 16 22 4 29 -8 5 -17 7 -20 5 -3 -2 -6
5 -7 15 -2 18 -1 18 18 -1 13 -13 27 -18 37 -14 9 4 36 10 60 12 35 5 47 2 67
-17 26 -24 32 -63 16 -89 -6 -10 -8 -1 -4 25 7 56 -19 79 -84 71 -36 -4 -54
-12 -75 -36 -15 -17 -32 -31 -38 -31 -5 0 -10 -5 -10 -11 0 -5 4 -8 8 -5 5 3
9 -1 9 -8 0 -11 -4 -12 -18 -3 -14 9 -26 9 -48 0 -26 -9 -29 -9 -24 6 4 11 1
10 -10 -4 -26 -32 -21 -70 14 -99 38 -32 60 -33 85 -3 19 22 19 22 -2 5 -27
-23 -47 -23 -75 3 l-24 21 25 -16 c13 -9 32 -16 41 -16 25 0 52 36 46 62 -6
22 -5 22 9 4 9 -13 11 -23 4 -30 -11 -11 45 -56 71 -56 20 0 79 46 79 61 0 6
-6 7 -12 3 -8 -4 -10 -3 -5 2 5 5 14 9 20 9 17 0 41 77 34 106 -8 28 -47 58
-79 61 -17 1 -23 8 -23 25 0 29 3 29 15 1 7 -19 9 -20 9 -5 1 10 -12 32 -28
48 -40 39 -81 39 -114 -1 -36 -42 -48 -38 -41 14 8 54 -9 109 -44 141 -31 29
-50 31 -78 10 -17 -13 -16 -13 13 -3 28 10 35 9 54 -7 30 -27 49 -77 48 -122
-1 -33 -2 -31 -9 16 -5 30 -17 66 -28 80 -30 40 -57 38 -103 -8 -22 -22 -50
-43 -61 -47 -16 -5 -18 -8 -7 -15 8 -5 16 -3 21 4 4 7 8 -5 8 -26 0 -21 -4
-36 -9 -32 -5 3 -12 1 -16 -5 -3 -5 2 -10 12 -10 10 0 36 -9 58 -20 45 -23 85
-26 104 -7 11 10 13 10 7 0 -4 -7 -2 -13 3 -13 6 0 11 4 11 10 0 6 9 6 24 0
18 -6 26 -5 29 3 2 7 4 7 3 -2 -1 -8 -14 -15 -34 -16 -18 -2 -40 -9 -49 -16
-12 -10 -14 -10 -9 -1 5 8 0 12 -18 12 -13 0 -32 3 -42 7 -12 4 -15 3 -10 -5
4 -7 2 -20 -4 -29 -10 -16 -10 -15 -5 4 11 42 -62 82 -93 51 -9 -9 -12 -9 -12
0 0 7 5 12 12 12 6 0 8 3 5 7 -4 3 0 15 9 25 16 17 15 20 -11 44 -22 20 -35
25 -59 20 -29 -5 -30 -5 -8 7 12 7 19 17 15 22 -4 4 3 1 17 -8 34 -23 46 -21
78 11 35 36 38 50 11 78 -23 25 -49 29 -84 14z"/>
<path d="M2662 2697 c-12 -13 -22 -27 -22 -31 0 -5 9 3 21 18 18 23 28 26 77
26 39 0 67 -6 90 -20 43 -27 41 -32 -5 -9 -45 23 -135 26 -153 5 -6 -8 -10
-32 -9 -53 6 -80 107 -135 154 -83 10 11 26 20 36 20 22 0 37 64 22 89 -38 61
-167 84 -211 38z"/>
<path d="M1834 2629 c1 -38 -2 -45 -14 -41 -12 5 -13 3 -3 -9 16 -19 80 -24
102 -7 14 12 15 11 2 -4 -7 -10 -26 -18 -41 -18 -16 0 -42 -11 -58 -25 -24
-20 -35 -23 -54 -16 -30 11 -60 -1 -87 -36 -16 -19 -21 -36 -17 -54 3 -18 -1
-32 -13 -44 -32 -28 -32 -53 1 -91 28 -32 70 -45 82 -26 3 5 -7 7 -22 4 -20
-3 -33 4 -52 25 l-25 28 27 -24 c21 -18 34 -22 58 -18 22 5 30 3 30 -8 0 -7 4
-16 9 -19 5 -4 7 4 5 16 -4 21 -4 21 4 3 5 -11 7 -26 5 -32 -4 -9 8 -13 39
-13 34 0 55 7 89 32 28 19 37 23 25 10 -10 -12 -37 -30 -60 -41 -22 -12 -34
-21 -25 -21 17 0 86 46 107 73 8 9 11 21 7 27 -4 6 -1 9 7 8 8 -2 14 8 16 23
2 19 -5 33 -27 52 -28 23 -29 27 -18 56 11 29 9 33 -23 64 -34 31 -34 32 -10
2 l25 -30 -26 23 c-28 24 -61 29 -77 10 -14 -19 -26 -112 -13 -103 6 3 8 11 5
17 -4 6 3 5 16 -2 12 -7 35 -10 51 -8 15 3 26 1 23 -3 -2 -4 4 -10 15 -14 11
-3 25 -13 32 -21 8 -10 -1 -8 -24 6 -26 16 -49 21 -84 19 l-48 -3 1 47 c0 56
21 82 71 90 62 10 111 75 85 113 -11 17 -58 25 -86 15 -17 -7 -26 -7 -29 2 -3
7 -4 -9 -3 -34z"/>
<path d="M2640 2630 c0 -8 -15 -24 -33 -35 -26 -17 -33 -28 -35 -62 -3 -34 1
-44 24 -62 15 -11 33 -21 41 -21 7 0 27 -16 44 -35 37 -42 75 -46 107 -12 25
27 24 48 -6 80 -17 18 -19 24 -7 24 8 0 13 -2 11 -5 -3 -2 6 -16 20 -31 18
-20 35 -26 67 -27 23 -1 52 -4 64 -9 16 -5 22 -2 26 12 3 12 5 10 6 -9 0 -15
5 -37 10 -51 6 -14 6 -29 0 -38 -6 -10 -9 -6 -9 16 0 40 -13 57 -41 57 -46 0
-63 -9 -76 -41 -13 -31 -12 -34 21 -67 19 -19 36 -47 38 -62 2 -15 8 -27 13
-28 6 0 23 -7 38 -14 23 -11 32 -12 49 -1 11 7 22 11 24 8 2 -2 -7 -10 -21
-17 -20 -10 -31 -11 -52 -1 -26 10 -27 10 -9 -4 25 -19 41 -19 73 2 14 10 41
16 61 15 19 -2 42 3 51 10 9 7 6 3 -7 -9 -13 -13 -19 -23 -15 -23 14 1 39 24
52 48 14 26 7 72 -10 72 -8 0 -8 -5 1 -15 6 -8 10 -22 7 -32 -4 -15 -5 -15 -6
3 -2 31 -35 57 -63 49 -29 -9 -24 -4 27 24 22 13 32 16 23 8 -10 -8 -18 -18
-18 -22 0 -5 11 2 25 15 24 22 35 47 16 36 -5 -4 -7 3 -4 14 3 11 -1 28 -8 37
-12 14 -12 16 0 9 9 -6 12 -4 9 5 -6 18 -96 79 -117 79 -9 0 2 -9 24 -19 22
-10 49 -26 60 -36 12 -10 5 -8 -18 5 -20 12 -50 25 -65 30 -15 4 -26 12 -25
18 3 14 -26 4 -49 -16 -10 -8 -18 -20 -18 -26 0 -21 -17 -37 -33 -31 -12 5
-14 15 -10 41 5 27 1 40 -17 59 -24 25 -37 24 -82 -7 -30 -20 -69 -23 -100 -7
-13 7 -18 7 -14 1 3 -6 2 -13 -3 -17 -6 -3 -8 3 -6 14 2 11 -7 29 -21 42 -22
20 -28 22 -54 12 -17 -6 -28 -7 -25 -2 3 5 19 12 34 16 23 7 27 12 20 28 -5
13 -8 15 -9 5z"/>
<path d="M3312 2575 c-11 -14 -30 -25 -44 -25 -30 0 -78 -45 -78 -73 0 -12 7
-32 15 -43 8 -12 11 -25 7 -29 -4 -5 -1 -5 6 -1 11 6 11 11 0 24 -12 15 -11
16 4 3 22 -17 78 -8 109 18 20 16 21 21 10 35 -7 9 -17 13 -22 10 -5 -3 -8 12
-8 33 2 28 3 31 6 12 7 -43 37 -64 75 -53 27 8 34 15 36 41 4 44 -36 72 -80
55 -25 -9 -28 -9 -18 4 7 8 10 14 7 14 -3 0 -14 -11 -25 -25z"/>
<path d="M3502 2578 c-11 -13 -24 -35 -27 -50 -8 -32 -22 -37 -27 -10 -3 14
-5 13 -10 -5 -5 -17 -2 -23 10 -23 10 0 22 -4 29 -8 6 -4 -15 -7 -47 -7 -47 0
-63 -5 -82 -22 -40 -37 -158 -73 -158 -48 0 8 -4 16 -8 19 -5 3 -4 -18 2 -46
18 -75 83 -123 115 -84 19 23 46 24 70 5 13 -11 20 -19 15 -19 -4 0 -17 8 -28
18 -20 16 -20 16 -7 -1 17 -21 58 -46 47 -28 -4 6 1 14 11 18 10 3 29 15 43
27 14 12 11 6 -7 -11 -18 -18 -29 -33 -25 -33 10 0 82 73 82 84 0 4 -6 4 -12
0 -7 -4 -9 -3 -5 1 12 14 39 15 60 3 14 -7 17 -7 13 1 -4 6 7 16 26 24 18 8
45 28 61 46 15 17 35 31 45 31 14 0 15 2 2 10 -9 6 -17 5 -22 -3 -4 -7 -8 5
-8 26 0 21 4 36 9 32 5 -3 12 -1 16 5 3 5 -1 10 -10 10 -9 0 -33 9 -55 20 -53
27 -95 26 -114 -2 -9 -12 -16 -17 -16 -11 0 6 12 21 26 32 15 12 22 21 17 21
-5 0 -19 -10 -31 -22z"/>
<path d="M772 2567 c-12 -13 -22 -33 -22 -45 0 -18 -6 -22 -29 -22 -58 0 -89
-81 -60 -157 26 -69 99 -106 130 -65 11 14 11 15 -1 5 -22 -20 -65 -15 -86 10
-19 22 -19 22 2 5 35 -30 68 -23 107 23 31 38 33 45 26 82 -7 39 -6 40 9 21
10 -11 30 -26 45 -34 24 -12 32 -12 50 0 21 12 21 12 8 -6 -7 -10 -2 -6 13 9
14 15 26 36 26 45 0 23 -16 47 -32 48 -7 0 -21 4 -31 9 -22 9 -69 -13 -60 -28
3 -6 2 -7 -3 -4 -6 3 -16 2 -23 -3 -8 -4 -28 -2 -47 6 -41 17 -95 18 -114 2
-12 -11 -12 -10 -1 5 16 20 69 23 117 5 27 -9 38 -9 58 2 14 7 24 16 22 19 -2
3 0 15 5 26 6 17 8 17 8 3 1 -10 9 -18 19 -18 10 0 24 -6 32 -12 12 -11 12
-10 1 5 -7 9 -20 17 -27 17 -8 0 -14 6 -14 13 0 14 -41 57 -54 57 -5 0 0 -8
11 -17 10 -10 14 -15 9 -10 -16 12 -73 8 -84 -5 -5 -7 -12 -24 -15 -38 l-4
-25 -2 26 c-1 28 22 54 54 62 19 5 19 5 -1 6 -11 0 -30 -9 -42 -22z"/>
<path d="M122 2505 c-19 -15 -33 -21 -37 -15 -9 14 -48 13 -65 -2 -12 -11 -12
-10 -1 5 16 20 51 22 71 5 12 -11 12 -10 1 5 -7 9 -23 17 -36 17 -12 0 -29 -8
-37 -17 -17 -20 -21 -101 -6 -120 5 -7 5 -13 0 -17 -5 -3 -10 -27 -10 -53 1
-71 56 -123 131 -123 36 0 77 33 77 63 0 10 10 17 32 19 24 2 38 12 55 37 31
45 29 58 -12 97 -19 18 -35 41 -35 50 0 26 -50 74 -76 74 -12 0 -36 -11 -52
-25z"/>
<path d="M831 2332 l-30 -39 28 -27 c24 -23 35 -27 59 -21 17 3 36 13 43 21
10 12 7 12 -17 -1 -38 -20 -59 -19 -75 3 -11 14 -11 15 1 5 18 -17 39 -16 73
2 27 14 28 13 38 -13 15 -40 49 -72 76 -72 17 0 23 -6 23 -23 0 -13 11 -34 24
-46 19 -18 32 -21 67 -18 l44 4 -46 1 c-54 2 -79 24 -79 69 0 27 -3 29 -29 25
-16 -2 -31 0 -35 6 -3 5 5 7 19 4 14 -2 32 1 40 8 13 11 15 6 15 -32 0 -24 5
-49 12 -56 17 -17 81 -15 126 3 33 13 35 13 18 0 -11 -8 -24 -15 -30 -15 -5 0
-7 -3 -3 -6 9 -9 75 34 87 56 15 29 12 55 -10 75 -16 15 -18 21 -7 34 11 14
10 14 -6 2 -17 -13 -17 -15 0 -35 l18 -21 -25 21 c-60 52 -116 58 -155 19 -14
-13 -25 -21 -25 -17 0 5 5 13 11 19 7 7 3 17 -17 32 -30 23 -64 27 -82 9 -9
-9 -13 -7 -17 8 -13 41 -23 49 -62 52 -37 2 -44 -1 -72 -36z"/>
<path d="M450 2343 c-30 -11 -60 -47 -60 -72 0 -18 -9 -31 -30 -43 -34 -19
-54 -61 -46 -94 4 -15 18 -24 48 -32 36 -10 37 -11 8 -7 -25 4 -31 2 -20 -5 8
-5 23 -10 33 -10 9 0 17 -4 17 -9 0 -5 12 -23 26 -40 32 -38 71 -41 103 -7 18
19 30 23 55 19 36 -5 70 23 81 69 5 21 1 31 -24 53 -24 22 -28 31 -21 46 18
34 11 66 -21 93 -17 14 -36 26 -42 26 -7 0 3 -9 21 -20 45 -27 40 -31 -9 -7
-48 24 -119 28 -142 8 -33 -27 -13 -112 35 -145 35 -24 78 -20 111 12 17 15
27 21 23 15 -4 -8 -1 -13 8 -13 8 0 17 -4 20 -9 3 -4 -6 -6 -20 -3 -15 3 -32
-2 -43 -12 -11 -10 -34 -18 -52 -18 -19 -1 -45 -9 -58 -19 -28 -23 -48 -25
-31 -4 7 8 16 13 20 10 4 -3 13 2 19 9 8 9 8 17 2 20 -5 3 -11 3 -14 -1 -2 -5
-2 -2 -1 5 2 6 -1 12 -6 12 -5 0 -11 9 -15 19 -8 26 -38 35 -67 21 -22 -11
-22 -10 -4 4 11 9 26 16 33 16 8 0 13 13 13 33 0 50 30 72 94 71 37 -1 44 1
26 6 -30 10 -50 10 -70 3z"/>
<path d="M2749 2329 l-24 -20 27 16 c16 10 36 14 47 10 25 -8 61 -52 61 -74
-1 -9 -7 -1 -15 16 -19 44 -56 61 -87 41 -17 -11 -32 -12 -57 -6 -19 5 -43 7
-53 5 -11 -3 -15 -1 -12 5 4 6 23 8 43 5 27 -5 32 -4 18 4 -29 17 -60 6 -85
-30 -23 -35 -26 -66 -7 -64 6 1 18 -6 28 -14 14 -13 24 -14 50 -6 20 6 42 6
60 0 18 -6 38 -5 59 2 45 16 84 13 99 -6 11 -15 11 -16 -1 -5 -19 17 -51 15
-79 -5 -14 -9 -21 -11 -17 -4 6 8 1 10 -16 6 -13 -3 -36 -2 -50 4 -20 8 -34 6
-62 -8 -19 -10 -35 -16 -34 -12 2 19 -4 18 -26 -4 -14 -13 -26 -32 -29 -42 -4
-14 -5 -14 -6 4 -2 37 -46 63 -110 63 -91 0 -120 -34 -86 -100 37 -71 108 -91
154 -42 20 22 31 27 46 21 30 -11 37 -10 29 4 -5 6 9 -2 29 -20 47 -41 105
-60 138 -44 23 12 23 11 5 -3 -24 -20 -37 -20 -82 -1 -19 8 -32 10 -29 5 3 -5
23 -15 45 -21 33 -10 43 -9 65 5 14 9 30 29 36 44 6 15 16 30 22 34 8 5 7 8
-4 8 -10 0 -20 -11 -23 -26 -4 -15 -9 -24 -12 -22 -2 3 0 17 5 31 7 17 7 28 1
32 -6 4 -10 14 -9 23 0 12 3 11 9 -5 7 -18 18 -23 47 -24 28 0 33 -2 19 -8
-19 -7 -19 -8 2 -13 14 -4 22 -2 22 7 0 7 8 23 18 35 24 30 17 64 -19 94 -16
14 -29 32 -29 41 0 21 -63 85 -83 85 -8 0 -25 -9 -38 -21z"/>
<path d="M2041 2265 c-17 -19 -36 -35 -44 -35 -21 0 -67 -54 -67 -79 0 -56 43
-75 103 -44 32 16 46 11 29 -10 -9 -10 -8 -17 1 -27 6 -7 1 -5 -13 3 -31 20
-67 6 -87 -33 -8 -16 -13 -19 -13 -9 0 9 7 22 15 29 8 7 15 17 15 23 0 5 -10
-3 -22 -18 -20 -25 -20 -30 -7 -53 8 -14 29 -34 46 -45 31 -18 33 -18 57 0 14
10 26 22 26 27 0 5 -11 -1 -24 -13 -23 -21 -26 -22 -54 -7 -17 9 -34 20 -37
26 -3 5 9 1 28 -10 l35 -21 33 28 c18 15 29 22 25 15 -5 -9 -3 -13 5 -11 8 1
26 -4 42 -11 25 -12 31 -11 60 10 30 22 31 22 13 2 -27 -31 -53 -36 -84 -17
l-27 16 24 -20 c31 -27 43 -26 82 6 37 32 68 95 69 139 0 33 -29 67 -67 79
-13 3 -23 14 -23 25 0 24 -55 70 -85 70 -14 0 -35 -14 -54 -35z"/>
<path d="M3639 2269 l-24 -21 25 16 c35 23 53 20 81 -11 l24 -28 -26 23 c-29
26 -47 28 -75 8 -18 -13 -24 -12 -50 5 -40 26 -67 24 -103 -10 -34 -32 -40
-61 -16 -81 9 -7 13 -20 10 -29 -5 -13 -4 -13 6 -4 10 10 9 16 -4 31 -18 20
-22 48 -8 56 4 3 6 -5 4 -18 -6 -29 36 -61 67 -53 12 3 17 1 14 -5 -3 -5 3
-12 15 -15 21 -5 30 -46 12 -57 -4 -3 -6 5 -4 19 4 20 0 25 -36 36 -30 9 -44
9 -54 1 -8 -7 -17 -8 -21 -4 -4 4 -11 7 -14 7 -4 0 -20 9 -35 19 -22 15 -33
17 -51 8 -20 -9 -27 -7 -47 15 -35 36 -56 46 -77 33 -15 -10 -14 -10 4 -5 14
3 30 -2 45 -15 l24 -21 -27 16 c-20 13 -31 14 -47 6 -26 -14 -34 -14 -26 2 4
6 -15 -11 -42 -38 -26 -28 -52 -50 -58 -50 -5 0 -23 9 -39 20 -17 11 -52 21
-86 23 -53 4 -59 2 -75 -21 -10 -15 -14 -36 -11 -49 3 -13 3 -17 0 -11 -4 10
-11 10 -27 2 -74 -38 -89 -99 -36 -143 17 -14 34 -24 39 -21 5 3 11 -3 14 -13
15 -45 93 -83 126 -61 17 10 10 12 -41 9 -24 -1 -40 5 -49 17 -12 15 -12 16 0
6 18 -16 72 -17 88 -1 7 7 12 8 12 4 0 -5 7 -3 15 4 14 12 13 16 -10 40 -21
21 -24 30 -13 36 7 4 10 4 6 -1 -4 -4 6 -21 22 -38 26 -28 31 -30 57 -19 26
12 27 11 8 -3 -11 -9 -28 -14 -37 -12 -10 3 -15 0 -11 -8 3 -8 -5 -15 -19 -18
-13 -2 -3 -4 22 -4 30 0 38 2 25 7 -19 7 -19 7 2 14 29 9 63 53 63 79 0 12
-12 34 -27 49 -21 22 -24 31 -15 40 7 7 12 22 12 34 0 13 4 25 9 28 4 3 6 -6
3 -20 -6 -33 20 -60 65 -69 19 -3 33 -9 30 -11 -3 -3 -22 -1 -44 5 -32 8 -35
8 -21 -3 11 -8 15 -20 12 -33 -7 -27 13 -66 31 -59 8 3 17 1 20 -4 10 -16 51
-11 68 8 10 11 14 26 10 41 -4 17 -3 22 6 17 6 -4 9 -11 6 -16 -9 -15 50 -19
78 -5 15 8 25 9 21 4 -3 -5 -20 -16 -37 -24 -24 -11 -26 -13 -7 -9 14 4 35 16
48 28 19 17 22 28 18 56 -3 19 -7 41 -8 48 -1 13 -18 17 -18 5 0 -5 -13 -8
-28 -9 -16 -1 -40 -4 -55 -8 -23 -5 -25 -9 -17 -30 7 -21 6 -24 -8 -21 -28 6
-68 24 -54 24 7 1 22 -4 33 -9 15 -9 19 -7 19 5 0 10 -5 13 -12 9 -7 -4 -4 2
6 14 11 12 28 22 38 22 11 0 16 5 13 10 -4 6 -11 7 -17 4 -7 -4 -8 -2 -4 5 6
9 11 9 22 0 8 -7 29 -9 49 -6 30 5 39 1 69 -29 19 -19 42 -34 53 -33 14 0 12
3 -7 10 -28 11 -60 38 -60 50 0 4 11 -3 25 -16 30 -31 49 -31 77 -3 17 17 20
18 15 4 -4 -10 -7 -27 -8 -39 0 -21 -1 -21 -9 -2 -8 20 -9 20 -9 -1 -1 -26 38
-64 66 -64 35 0 83 47 83 81 0 16 -4 29 -9 29 -4 0 -7 -12 -5 -27 4 -27 3 -27
-4 -3 -9 28 -48 52 -74 46 -11 -2 -15 1 -11 10 4 10 10 11 24 3 28 -15 106
-14 126 2 16 13 17 12 4 -3 -7 -10 -21 -18 -30 -19 -11 0 -12 -2 -3 -6 21 -8
62 37 62 69 0 41 -26 98 -62 136 -37 37 -57 40 -89 11z m-720 -219 c4 0 13
-11 19 -26 11 -22 64 -54 91 -54 6 0 27 14 48 32 21 18 35 29 31 24 -4 -5 6
-19 23 -33 28 -24 39 -66 21 -77 -5 -3 -7 7 -4 22 2 19 -3 34 -18 47 -21 19
-22 19 -69 -7 -35 -20 -51 -24 -59 -16 -8 8 -18 5 -38 -11 -15 -11 -33 -21
-40 -21 -10 0 -11 -6 -4 -26 7 -16 7 -23 0 -19 -6 3 -10 13 -10 22 0 9 -6 13
-14 10 -8 -3 -26 3 -40 14 -36 29 -36 80 1 109 15 11 33 18 41 15 7 -3 17 -5
21 -5z"/>
<path d="M2376 2201 c-22 -23 -27 -36 -23 -57 4 -21 -1 -32 -24 -51 -40 -34
-41 -92 -3 -122 15 -12 34 -21 43 -21 9 1 1 7 -16 15 -18 8 -33 17 -33 20 0 3
9 1 21 -5 11 -6 25 -9 32 -7 7 2 17 -7 22 -21 6 -14 17 -27 25 -28 8 -2 27 -7
43 -10 49 -11 92 48 55 77 -16 13 -17 16 -4 16 9 0 16 -4 16 -8 0 -5 11 -16
25 -25 23 -15 27 -15 49 0 15 10 26 28 29 48 l5 33 -2 -34 c-1 -45 -43 -79
-75 -62 -17 9 -21 9 -21 -2 0 -20 -43 -57 -66 -57 -10 0 -26 -5 -34 -11 -12
-9 -12 -10 3 -5 10 3 26 6 36 6 9 0 31 14 48 30 18 17 37 28 45 25 23 -9 75
40 80 75 4 28 -20 68 -34 55 -3 -3 -16 -2 -29 3 -19 6 -29 2 -50 -20 -15 -15
-25 -29 -22 -31 2 -2 -8 -2 -22 1 -18 3 -33 -2 -48 -16 l-23 -21 -1 27 c-1 22
0 23 6 8 6 -16 9 -17 16 -6 5 9 4 15 -5 18 -8 3 -23 15 -35 28 -41 44 -84 26
-87 -35 l-1 -36 -4 33 c-5 38 18 72 49 72 15 0 17 3 8 19 -16 31 -12 56 13 79
19 18 35 22 84 22 51 0 67 -4 95 -26 l33 -26 -33 31 c-29 28 -38 31 -95 31
-57 0 -66 -3 -91 -29z"/>
<path d="M815 2181 c-44 -27 -78 -67 -70 -82 5 -7 4 -10 -3 -5 -16 9 -35 -31
-28 -60 4 -13 19 -33 35 -45 20 -15 27 -27 23 -44 -6 -34 -53 -31 -88 7 -36
37 -72 37 -109 -2 -16 -16 -39 -30 -51 -30 -13 0 -33 -13 -48 -31 -43 -50 -33
-83 27 -94 32 -6 42 -4 64 16 l26 24 -23 -32 c-22 -30 -30 -32 -75 -19 -15 5
-15 4 3 -5 18 -10 21 -18 17 -43 -3 -17 -2 -36 2 -41 26 -34 161 -46 203 -19
l25 16 -24 -21 c-26 -24 -115 -29 -154 -10 -21 10 -21 10 -3 -5 13 -10 40 -16
77 -16 48 0 63 5 89 27 28 23 31 31 26 61 -4 29 -1 38 23 58 35 29 49 102 19
93 -2 0 -16 6 -32 15 -27 14 -32 13 -57 -1 -15 -9 -26 -19 -24 -23 2 -3 0 -12
-6 -20 -6 -11 -9 -12 -9 -2 0 7 -6 10 -12 7 -7 -4 -1 4 13 17 14 13 24 29 23
36 -1 7 0 8 3 2 3 -6 11 -6 22 0 12 6 26 4 44 -5 15 -8 27 -11 27 -8 0 3 11
-2 25 -11 29 -19 56 -20 75 -3 12 10 12 9 0 -6 -9 -13 -23 -17 -41 -15 -16 3
-26 1 -23 -4 10 -15 48 -8 71 14 17 16 34 22 56 20 43 -4 90 42 85 84 -2 16
-7 29 -13 30 -5 0 -17 3 -25 7 -28 11 -76 13 -86 4 -5 -6 -7 -35 -6 -66 2 -31
1 -53 -3 -49 -4 3 -7 27 -7 52 0 32 -3 44 -11 39 -7 -3 -1 5 12 20 14 16 29
23 40 20 13 -5 14 -3 4 8 -7 7 -13 20 -13 29 0 9 6 5 13 -10 11 -22 19 -25 57
-22 47 3 60 13 60 48 0 24 -49 74 -74 74 -20 0 -58 -18 -67 -32 -3 -5 -9 -2
-12 7 -4 9 -3 13 3 10 22 -14 8 15 -16 34 -33 26 -41 26 -79 2z"/>
<path d="M1760 2160 c-11 -7 -7 -8 15 -4 25 4 35 0 60 -28 l30 -33 -32 29
c-29 26 -35 28 -70 19 -24 -6 -48 -5 -65 1 -18 6 -35 6 -49 0 -19 -9 -17 -10
17 -11 83 -3 82 -3 72 -47 -12 -52 -23 -63 -14 -14 6 31 3 39 -14 48 -34 18
-95 3 -108 -26 -6 -13 -9 -30 -6 -39 3 -8 -6 -28 -20 -46 -34 -40 -33 -52 7
-95 28 -30 36 -34 63 -28 29 5 32 9 32 46 1 58 9 58 13 0 2 -28 0 -48 -5 -45
-5 3 -7 0 -4 -8 2 -7 -8 -24 -24 -37 l-29 -25 -26 24 c-14 13 -23 18 -18 10 6
-10 2 -12 -13 -7 -15 5 -31 -2 -59 -26 -23 -20 -30 -23 -18 -9 11 13 34 32 50
42 17 11 25 19 19 19 -13 0 -62 -37 -86 -65 -10 -11 -25 -39 -34 -62 -15 -40
-15 -44 0 -69 17 -25 74 -56 87 -48 4 2 5 -5 2 -16 -11 -41 62 -85 94 -58 22
18 33 51 19 61 -6 5 -3 6 9 2 47 -17 55 -16 80 10 19 18 25 33 22 47 -5 16 -3
18 6 9 18 -18 -11 -62 -53 -83 -22 -12 -28 -18 -17 -18 22 0 87 62 87 83 0 8
-9 26 -20 40 -18 22 -18 26 -4 38 17 14 15 74 -3 74 -24 0 -21 11 4 13 28 2
83 33 104 59 8 9 -6 2 -31 -16 -38 -26 -55 -32 -102 -32 -70 -1 -95 -22 -81
-65 13 -40 36 -51 75 -36 23 8 28 8 20 0 -9 -9 -9 -15 0 -27 10 -13 10 -14 -2
-3 -18 16 -33 15 -76 -3 -32 -13 -34 -17 -24 -37 10 -21 10 -22 -3 -5 -9 11
-18 14 -21 8 -4 -5 4 -17 16 -25 12 -9 17 -16 11 -16 -7 0 -15 5 -18 10 -4 6
-30 8 -68 4 -49 -4 -66 -2 -82 11 -19 16 -19 16 4 4 41 -20 111 -5 142 29 15
17 29 28 32 26 3 -3 8 -1 11 4 3 5 -1 15 -9 22 -8 7 -15 18 -15 25 0 8 -12 28
-27 47 -21 25 -22 28 -5 14 22 -19 22 -19 45 2 13 12 31 22 41 22 11 0 15 5
10 13 -6 10 -4 10 7 0 23 -22 73 -15 116 16 23 16 44 27 47 24 3 -3 13 11 22
31 l18 36 -31 33 c-29 30 -31 34 -18 57 12 22 11 28 -2 50 -34 52 -72 70 -103
50z"/>
<path d="M160 2129 c-45 -14 -97 -53 -105 -80 -5 -14 0 -31 13 -49 l21 -27
-26 -23 c-20 -18 -24 -28 -19 -53 8 -37 42 -77 68 -77 10 0 29 7 42 16 17 11
26 12 31 4 15 -24 57 -31 84 -15 l26 16 -24 -21 c-26 -22 -51 -20 -86 8 l-20
16 20 -21 c33 -35 59 -37 93 -8 23 19 31 33 29 55 -2 24 -9 32 -42 45 -23 8
-53 15 -68 15 -24 0 -26 -2 -17 -19 8 -16 5 -26 -16 -50 -29 -35 -64 -40 -85
-13 -13 15 -12 16 3 4 25 -20 60 -11 78 20 18 32 8 54 -33 78 -23 13 -28 13
-46 -4 -12 -11 -22 -29 -22 -40 -1 -18 -2 -19 -6 -3 -3 12 5 30 21 46 21 22
24 30 13 41 -6 8 -1 5 13 -6 59 -50 101 -56 146 -22 16 12 23 15 16 6 -9 -11
-10 -18 -2 -23 6 -3 8 -10 6 -14 -3 -4 11 -13 30 -20 31 -11 38 -11 56 5 13
13 18 27 16 46 -3 15 -1 25 4 22 26 -16 -15 -94 -50 -94 -7 0 -12 -4 -12 -10
0 -15 7 -12 45 21 22 20 35 40 35 56 0 27 -50 83 -74 83 -10 0 -16 9 -16 23 0
52 -72 86 -140 66z"/>
<path d="M1170 2052 c-47 -23 -64 -59 -44 -90 15 -22 14 -26 -5 -46 -12 -12
-21 -34 -21 -47 0 -28 47 -79 73 -79 9 0 17 -6 17 -13 0 -22 44 -57 72 -57 35
0 78 36 78 66 0 17 6 24 19 24 11 0 33 11 48 24 23 20 28 32 27 68 -2 71 -58
158 -102 158 -18 0 -72 -38 -72 -51 0 -6 6 -7 13 -3 8 5 8 2 -2 -9 -14 -18
-26 -23 -16 -8 3 5 -5 22 -18 36 -22 27 -23 27 -60 12 -20 -9 -37 -14 -37 -11
0 3 16 12 36 20 35 15 38 14 63 -8 l26 -23 -24 28 c-29 32 -27 32 -71 9z"/>
<path d="M2661 1924 c-22 -18 -31 -34 -30 -52 l2 -27 4 27 c5 30 45 68 72 68
10 0 26 -7 37 -15 17 -13 16 -13 -12 -3 -41 15 -81 -8 -86 -49 -2 -19 -10 -29
-23 -31 -48 -9 -28 -17 39 -16 63 0 73 -2 68 -15 -5 -13 -3 -14 10 -3 13 10
15 9 11 -12 -5 -22 0 -26 37 -36 33 -9 45 -8 58 2 15 11 15 11 5 -3 -10 -12
-10 -18 0 -28 10 -11 8 -11 -10 -2 -39 20 -62 13 -84 -24 -22 -37 -37 -49 -19
-16 5 11 10 30 11 43 0 13 3 17 6 10 2 -6 9 -9 14 -6 5 3 -8 23 -31 45 -42 41
-73 48 -149 33 -59 -12 -51 -101 16 -175 42 -46 70 -50 104 -11 l24 27 -26
-22 c-14 -13 -34 -23 -46 -23 -11 0 -28 10 -39 23 -19 22 -19 22 2 5 27 -23
57 -23 78 1 19 21 39 22 58 3 17 -17 44 -15 76 4 l27 16 -25 -21 c-31 -25 -57
-27 -84 -3 -21 17 -21 17 -2 -5 25 -30 51 -29 93 3 36 28 45 72 18 94 -14 12
-14 15 0 30 8 9 15 23 15 31 0 12 -2 11 -10 -1 -7 -11 -10 -8 -10 16 0 58 -64
86 -94 42 -17 -24 -20 -11 -6 32 4 14 8 18 9 9 1 -11 9 -14 29 -11 23 3 34 -3
55 -28 15 -17 27 -28 27 -23 0 16 -55 63 -74 63 -10 0 -31 14 -46 30 -34 37
-59 38 -99 4z"/>
<path d="M2253 1909 c-34 -31 -39 -44 -24 -68 7 -10 0 -20 -22 -35 -56 -38
-49 -93 20 -167 52 -56 86 -63 121 -26 23 25 30 43 11 31 -8 -5 -8 -1 0 14 6
11 11 37 11 57 0 20 4 34 9 30 5 -3 12 -1 16 5 3 5 -3 10 -14 10 -11 0 -22 4
-25 9 -4 5 11 7 34 4 21 -3 47 -2 57 2 10 5 23 9 28 9 16 2 17 49 2 70 -16 22
-83 32 -103 15 -8 -6 -15 -28 -15 -48 -1 -20 -3 -28 -6 -18 -4 14 -8 16 -19 6
-8 -7 -14 -7 -14 -1 0 5 7 12 15 16 18 7 20 67 3 84 -16 16 -50 15 -68 0 -12
-11 -12 -10 -1 5 25 33 91 9 91 -33 0 -11 3 -11 12 -2 7 7 21 12 33 12 11 0
26 4 33 9 11 7 10 9 -3 14 -9 4 -14 3 -11 -2 3 -5 -8 -11 -24 -13 -22 -3 -36
2 -52 19 -29 31 -57 29 -95 -8z"/>
<path d="M3442 1907 c-23 -24 -30 -43 -12 -32 7 4 7 -3 0 -20 -6 -15 -10 -36
-10 -47 0 -12 -7 -30 -17 -40 -15 -17 -15 -18 6 -18 13 0 35 -9 49 -21 21 -16
34 -19 67 -13 22 3 49 11 60 16 20 9 20 9 1 -6 -11 -9 -26 -16 -34 -16 -7 0
-10 -5 -7 -10 9 -14 64 26 77 56 12 26 -3 74 -30 96 -13 11 -14 11 -7 -2 4 -8
-10 2 -31 23 -41 38 -78 47 -104 25 -12 -11 -12 -10 -1 5 21 27 61 21 98 -15
18 -18 33 -27 33 -21 0 17 -67 63 -93 63 -13 0 -33 -10 -45 -23z"/>
<path d="M1870 1863 c-11 -15 -20 -36 -18 -48 1 -12 -9 -36 -25 -54 -36 -43
-34 -67 8 -107 19 -18 35 -41 35 -52 0 -10 11 -29 24 -41 35 -33 84 -26 111
15 17 27 25 31 51 27 25 -4 35 1 57 27 16 19 26 42 26 58 l-2 27 -4 -25 c-10
-53 -18 -36 -18 35 0 73 9 89 18 30 l4 -30 2 32 c2 43 -41 93 -79 93 -16 0
-31 -4 -34 -8 -2 -4 10 -6 28 -4 22 3 37 -2 47 -14 13 -16 12 -16 -7 -4 -28
17 -66 7 -108 -30 -18 -17 -44 -30 -57 -30 -21 -1 -22 -2 -6 -11 9 -5 20 -8
25 -5 4 2 6 -13 6 -34 -2 -36 1 -40 49 -66 43 -23 54 -26 79 -16 25 9 28 9 18
-4 -21 -24 -68 -14 -132 29 -15 10 -32 16 -37 13 -16 -11 -22 11 -6 24 21 17
19 37 -5 50 -11 6 -18 15 -15 21 9 14 -49 11 -65 -3 -12 -11 -12 -10 -1 5 7 9
20 17 28 17 8 0 11 5 7 12 -4 6 3 4 17 -5 32 -23 62 -21 87 6 18 19 20 26 9
47 -11 21 -20 25 -60 24 -48 0 -52 11 -7 19 l25 4 -27 2 c-18 1 -33 -8 -48
-26z"/>
<path d="M945 1840 c-16 -16 -37 -30 -46 -30 -10 0 -31 -12 -48 -26 -35 -29
-43 -82 -16 -104 14 -12 14 -15 0 -30 -30 -33 -15 -80 35 -104 8 -4 4 2 -10
14 l-25 21 33 -16 c26 -13 36 -13 55 -3 31 17 48 16 76 -4 32 -24 34 -23 78
15 20 17 33 25 28 17 -8 -13 -6 -13 8 -2 9 8 24 33 33 58 16 41 16 45 0 70
-10 14 -33 32 -52 40 -25 10 -34 20 -33 37 1 21 1 21 9 -3 7 -21 8 -21 9 -5 1
22 -9 39 -24 42 -5 1 -24 8 -42 15 -28 10 -35 10 -55 -7 l-23 -19 22 24 c21
22 26 23 55 13 30 -11 31 -11 14 2 -29 22 -49 18 -81 -15z"/>
<path d="M3027 1819 c-9 -5 -21 -8 -26 -5 -11 7 -81 -69 -81 -88 0 -18 38 -66
53 -66 6 0 2 7 -9 15 -13 11 -9 10 17 -2 42 -20 42 -21 8 -26 -55 -9 -45 -83
17 -123 24 -16 27 -16 55 5 28 21 56 21 43 0 -3 -6 4 -7 20 -3 18 4 39 -2 72
-20 59 -33 99 -35 91 -5 -3 11 0 22 7 25 16 6 15 47 -2 67 -16 19 -72 40 -72
26 0 -5 9 -9 19 -9 10 0 29 -9 42 -21 l24 -20 -28 17 c-15 9 -36 14 -48 11
-12 -3 -18 -3 -15 0 3 3 1 15 -5 26 -7 12 -7 17 -1 13 10 -6 72 57 72 72 0 12
-29 49 -30 38 0 -5 -9 -1 -20 9 -12 11 -29 16 -44 13 -14 -3 -23 -1 -20 3 9
15 46 10 66 -8 10 -9 18 -12 18 -6 0 15 -42 34 -72 31 -26 -2 -28 -5 -28 -48
0 -25 -5 -51 -11 -57 -9 -9 -7 -12 7 -12 10 0 32 -3 47 -7 20 -5 34 -1 50 12
l22 19 -20 -24 c-18 -21 -26 -23 -73 -18 -56 6 -108 -6 -98 -22 3 -5 -5 -4
-19 2 -24 12 -24 12 14 20 21 4 45 15 54 25 15 18 30 135 15 126 -4 -3 -5 2
-2 10 5 13 -3 16 -42 16 -27 0 -57 -5 -67 -11z"/>
<path d="M327 1790 c-23 -27 -27 -28 -57 -17 -30 11 -33 10 -66 -25 -19 -21
-34 -46 -33 -55 0 -14 2 -13 9 5 14 33 21 27 8 -8 -5 -17 -8 -48 -6 -70 2 -22
0 -36 -4 -32 -3 4 -8 25 -11 47 l-4 40 -1 -42 c-2 -53 36 -104 76 -102 l27 2
-27 4 c-14 2 -32 12 -40 21 -12 15 -11 16 4 3 22 -17 77 -8 111 19 14 11 35
20 47 20 11 0 18 5 15 10 -9 14 1 12 13 -3 9 -10 4 -13 -20 -15 -40 -3 -75
-31 -70 -57 7 -36 24 -47 68 -43 23 1 40 0 37 -4 -2 -5 -21 -8 -42 -8 -40 0
-71 23 -71 53 0 9 -4 17 -10 17 -13 0 -1 -31 23 -57 30 -34 89 -32 116 3 12
15 21 34 20 43 0 11 -3 9 -9 -6 -5 -13 -12 -23 -14 -23 -3 0 -3 7 0 15 4 8 1
22 -6 30 -10 12 -9 16 6 21 11 3 30 10 44 15 24 9 24 9 6 -6 -11 -8 -28 -15
-39 -15 -10 0 -15 -4 -12 -10 9 -14 61 15 80 44 20 30 11 70 -22 96 -14 10
-22 24 -18 30 4 6 4 22 1 35 -5 19 -15 25 -53 31 -43 6 -48 5 -69 -22 l-23
-28 29 -28 c36 -34 40 -34 75 -7 19 16 26 28 22 45 -2 13 0 21 4 18 13 -8 11
-38 -3 -52 -7 -7 -8 -12 -2 -12 6 0 19 -7 30 -15 18 -14 17 -15 -8 -4 -23 10
-31 8 -63 -17 -33 -25 -37 -26 -33 -9 2 14 -9 31 -35 53 -51 42 -82 50 -110
26 -22 -18 -22 -18 0 6 21 22 26 23 55 12 30 -11 33 -10 58 20 24 28 30 31 66
25 26 -4 34 -3 24 3 -29 19 -67 11 -93 -20z"/>
<path d="M3320 1730 c-17 -32 -11 -61 20 -92 26 -25 36 -29 64 -24 25 5 37 2
51 -14 10 -11 27 -20 37 -20 24 0 66 27 79 52 11 21 3 61 -11 53 -5 -3 -11 -1
-15 5 -3 5 -20 10 -37 10 -18 0 -41 8 -52 19 -13 11 -42 21 -74 24 -44 5 -54
3 -62 -13z"/>
<path d="M1377 1648 c17 -7 35 -17 40 -21 4 -5 -5 -4 -20 2 -44 17 -106 0
-157 -42 l-25 -21 26 27 c14 16 43 34 65 42 21 8 31 14 21 15 -25 0 -56 -17
-94 -53 -39 -36 -40 -45 -12 -81 l21 -27 -27 -25 c-29 -27 -28 -48 4 -94 18
-25 66 -39 82 -23 5 5 -5 7 -25 5 -18 -2 -36 0 -39 5 -3 4 11 8 31 8 29 0 39
5 47 22 5 13 15 25 22 27 10 4 10 1 1 -14 -10 -15 -9 -23 6 -39 35 -39 96 -20
109 34 4 19 5 19 6 -2 1 -27 -53 -74 -77 -66 -9 3 -27 15 -39 26 -13 11 -25
18 -28 15 -7 -7 53 -49 73 -51 29 -2 73 34 79 65 3 15 11 28 18 28 7 0 25 14
39 30 21 26 24 35 15 58 -15 39 -39 62 -66 62 -16 0 -23 6 -23 19 0 29 -40 69
-75 76 l-30 5 32 -12z"/>
<path d="M2474 1594 c-18 -14 -18 -15 4 -4 26 13 54 6 74 -17 11 -14 9 -14
-14 1 -18 12 -34 15 -50 10 -13 -4 -29 -8 -37 -8 -8 -1 -16 -7 -19 -15 -3 -8
0 -11 7 -7 7 5 9 1 5 -9 -6 -14 -7 -14 -18 1 -8 10 -21 14 -37 11 -23 -4 -23
-4 4 -6 39 -2 33 -16 -8 -17 -21 0 -32 4 -29 10 3 6 -4 0 -15 -13 -30 -34 -27
-74 8 -104 20 -17 26 -28 20 -38 -17 -28 -9 -57 26 -88 20 -17 43 -31 53 -30
11 0 9 4 -8 10 -38 15 -70 50 -70 75 0 13 4 25 8 28 5 3 7 -8 4 -23 -3 -21 3
-33 23 -49 34 -27 109 -39 149 -24 23 9 27 9 18 0 -7 -7 -33 -15 -60 -19 l-47
-6 43 -2 c36 -1 49 4 73 29 21 20 29 38 27 55 -2 15 4 30 17 40 19 14 18 15
-7 4 -16 -7 -28 -17 -28 -23 -1 -6 -10 6 -21 26 -19 37 -41 54 -88 69 -25 7
-25 7 5 8 17 1 37 8 44 16 7 8 16 13 20 10 4 -3 13 2 19 9 8 10 9 16 1 21 -5
3 -10 11 -10 18 0 6 6 3 13 -8 8 -10 19 -15 24 -12 6 4 22 -3 37 -14 20 -16
26 -28 25 -57 l-2 -37 -6 39 c-4 23 -14 44 -27 53 -18 12 -24 11 -46 -7 -36
-28 -40 -53 -11 -84 28 -31 22 -30 67 -11 31 13 36 20 36 49 0 26 -8 41 -30
60 -17 14 -37 23 -45 20 -9 -4 -15 0 -15 9 0 17 -55 67 -74 67 -7 0 -21 -7
-32 -16z"/>
<path d="M1068 1557 c-83 -66 -87 -68 -107 -58 -31 17 -53 13 -83 -16 -20 -19
-28 -36 -27 -57 l1 -31 8 30 c7 28 8 29 9 5 0 -15 6 -31 13 -38 17 -17 94 -15
112 3 11 12 21 13 41 5 39 -15 43 -13 65 23 21 34 27 30 9 -6 -10 -21 -10 -22
6 -2 16 20 17 47 2 45 -5 -1 -21 10 -36 24 -24 23 -32 25 -54 17 -15 -6 -27
-8 -27 -6 0 3 12 10 27 16 22 8 30 6 55 -18 15 -14 28 -23 28 -18 0 5 -12 19
-27 32 l-28 23 25 19 c14 11 23 22 20 24 -3 3 -17 -4 -32 -16z"/>
<path d="M2781 1567 c-19 -7 -43 -24 -54 -39 -16 -22 -18 -31 -9 -56 9 -27 7
-33 -19 -57 -26 -22 -29 -31 -24 -58 14 -70 99 -104 117 -47 3 10 6 8 10 -8 4
-12 2 -20 -3 -16 -5 3 -9 0 -9 -6 0 -11 59 -50 75 -50 6 1 -6 10 -25 21 -19
11 -26 17 -15 13 35 -12 82 -4 115 19 33 23 63 21 86 -5 l19 -23 -22 18 c-29
25 -71 15 -108 -23 -15 -16 -32 -27 -36 -24 -13 8 -28 -29 -22 -57 3 -15 1
-29 -5 -33 -5 -3 -7 6 -4 21 3 18 1 24 -7 19 -6 -4 -8 -13 -4 -19 5 -9 3 -9
-8 0 -8 6 -25 13 -39 16 -18 3 -16 4 7 3 17 -1 29 2 27 6 -3 4 -18 8 -35 8
-16 0 -29 5 -29 12 0 21 -53 68 -77 68 -60 0 -163 -72 -163 -115 0 -23 26 -65
41 -65 6 0 7 5 4 10 -3 6 10 0 30 -11 43 -26 101 -21 126 10 17 20 17 20 22 1
3 -11 17 -25 32 -32 31 -14 53 -4 72 33 8 15 13 18 13 8 0 -17 -40 -59 -57
-59 -6 0 -9 -10 -8 -22 1 -13 0 -15 -2 -6 -6 25 -25 36 -69 44 -31 4 -41 3
-42 -7 -1 -27 -12 -63 -20 -71 -5 -5 -7 4 -4 20 3 22 -2 33 -19 46 -28 19 -60
21 -79 4 -11 -11 -11 -9 0 7 15 20 15 20 -8 1 -24 -21 -28 -71 -5 -71 6 0 15
-4 20 -9 5 -5 3 -6 -4 -2 -19 11 -16 -9 5 -26 22 -19 60 -29 68 -17 3 5 -8 9
-25 9 -16 0 -32 3 -34 8 -3 4 12 7 33 7 21 0 36 -3 33 -7 -2 -5 3 -8 11 -8 9
0 15 6 14 13 -2 6 4 10 12 8 50 -13 72 -12 93 5 l22 19 -19 -22 c-11 -13 -30
-23 -43 -23 -13 0 -22 -4 -18 -10 14 -23 95 40 95 75 0 30 61 87 86 80 13 -4
11 -1 -6 10 -17 11 -19 14 -5 9 50 -18 107 -16 136 5 15 12 35 21 44 21 9 0
13 5 10 10 -4 6 -10 8 -15 5 -4 -3 -6 5 -2 17 5 21 5 21 13 1 4 -11 15 -23 24
-27 25 -9 68 15 76 44 6 21 7 22 8 4 1 -11 -4 -25 -11 -32 -8 -8 -8 -12 -1
-12 12 0 23 23 23 49 0 41 -95 93 -114 63 -2 -4 10 -6 27 -4 25 3 37 -2 52
-20 l20 -23 -22 18 c-29 25 -74 19 -90 -13 -13 -27 -13 -27 -17 31 -3 40 -55
75 -87 58 -15 -8 -19 -8 -15 0 4 6 2 11 -3 11 -6 0 -11 -6 -11 -14 0 -8 -4
-18 -10 -21 -6 -4 -7 2 -1 17 7 20 3 27 -28 48 -45 30 -81 37 -81 15 0 -10 5
-13 13 -9 8 5 8 2 -2 -9 -7 -9 -19 -17 -25 -17 -7 0 -7 3 -1 8 29 21 -15 82
-59 82 -25 0 -47 -36 -41 -66 l5 -29 -11 28 c-10 25 -8 32 12 53 12 13 29 24
36 24 9 0 11 5 7 13 -5 6 9 -3 29 -20 51 -44 102 -46 140 -4 14 16 23 31 21
34 -3 2 8 2 23 -1 23 -5 24 -7 8 -10 -25 -5 -76 -52 -69 -63 3 -5 -2 -6 -10
-3 -31 12 -15 -5 30 -31 43 -25 47 -26 70 -11 28 19 33 66 9 86 -8 7 -12 16
-9 21 3 5 -6 13 -20 19 -20 7 -26 16 -25 37 l1 28 8 -30 8 -30 -1 35 c-4 65
-89 98 -176 67z"/>
<path d="M1744 1520 c35 -18 41 -18 56 -5 18 16 65 20 74 7 2 -4 -10 -6 -28
-4 -38 4 -51 -9 -59 -61 -4 -26 -2 -37 6 -36 24 3 73 -13 97 -32 24 -19 23
-19 -20 1 -54 24 -72 25 -109 5 -16 -8 -31 -11 -35 -8 -18 19 -115 20 -127 2
-12 -19 -7 -64 8 -64 6 0 15 -4 20 -9 5 -5 3 -6 -4 -2 -7 4 -13 2 -13 -3 0 -6
-12 -11 -27 -11 -63 -1 -154 -66 -152 -109 0 -12 2 -11 8 3 7 19 8 19 13 -2 4
-12 2 -20 -3 -16 -16 10 -9 -13 8 -27 14 -12 16 -12 8 0 -5 8 7 3 26 -11 19
-14 45 -28 58 -31 28 -7 71 8 89 30 11 15 12 14 12 -6 0 -12 -4 -20 -9 -16 -5
3 -12 1 -16 -5 -3 -5 -15 -10 -26 -10 -11 0 -18 -4 -14 -9 3 -5 1 -12 -5 -16
-6 -4 -8 -10 -5 -15 3 -4 -2 -13 -10 -20 -20 -16 -19 0 1 28 12 18 13 23 3 21
-8 -2 -28 5 -46 14 -17 9 -38 15 -45 14 -7 -2 -10 -2 -5 0 4 3 7 10 7 16 -1 7
-14 -3 -30 -22 -24 -29 -27 -37 -19 -60 15 -38 49 -71 75 -71 13 0 25 4 28 8
3 5 -7 7 -23 4 -18 -2 -32 2 -41 15 -12 15 -12 16 0 6 18 -17 52 -17 69 0 8 6
11 7 8 1 -6 -11 60 -54 84 -54 18 0 69 51 69 69 0 14 -1 14 -10 1 -8 -12 -10
-11 -10 5 0 14 7 21 23 22 12 1 34 16 49 32 24 27 26 34 17 60 -9 24 -18 30
-56 38 -39 7 -48 12 -54 36 -4 16 -13 35 -20 43 -23 28 -122 9 -173 -34 -20
-16 -20 -16 -6 2 24 31 89 54 170 60 49 4 68 3 55 -3 -17 -8 -17 -10 -3 -10
10 -1 23 -11 29 -23 30 -56 82 -62 151 -19 49 31 78 65 78 93 0 9 -15 34 -32
55 -18 20 -27 34 -21 29 8 -4 17 2 24 18 12 26 5 61 -10 51 -5 -3 -13 0 -17 6
-4 8 -3 9 4 5 19 -11 14 9 -6 27 -23 21 -60 22 -82 2 -15 -14 -20 -14 -46 0
-16 8 -33 15 -39 15 -5 -1 8 -10 29 -20z"/>
<path d="M639 1525 c-1 -3 -2 -10 -3 -15 -2 -20 -81 -81 -98 -76 -12 2 -16 0
-12 -7 5 -8 2 -7 -7 1 -18 17 -39 15 -63 -5 -21 -18 -21 -18 -2 5 11 12 25 22
33 22 8 0 11 5 7 11 -10 17 -74 -51 -74 -79 0 -15 13 -37 34 -56 18 -18 37
-42 40 -54 8 -23 51 -62 70 -62 6 0 -4 9 -21 20 -18 11 -33 22 -33 25 0 3 10
-1 23 -10 17 -11 31 -12 55 -6 37 11 43 5 10 -9 -15 -6 -17 -9 -7 -9 24 -1 50
32 47 60 -3 27 -46 58 -83 61 -13 1 -21 6 -19 10 5 8 23 3 79 -23 22 -10 48
-20 58 -23 10 -3 16 -10 13 -15 -13 -21 36 4 55 28 43 54 9 201 -47 208 -15 2
-14 1 4 -7 32 -14 28 -16 -20 -11 -34 3 -39 5 -23 12 17 6 17 8 3 8 -10 1 -19
-1 -19 -4z"/>
<path d="M2165 1510 c-13 -14 -22 -17 -29 -10 -5 5 -24 10 -42 10 -42 0 -88
-51 -79 -87 4 -17 -2 -33 -20 -54 -33 -40 -32 -50 9 -93 31 -33 36 -35 62 -26
22 9 30 8 33 -1 8 -25 51 -59 73 -59 13 1 32 6 43 13 40 23 85 61 85 70 0 5
-18 -7 -40 -27 -45 -41 -82 -53 -113 -38 -19 10 -18 10 9 5 36 -6 78 13 113
51 13 14 28 23 32 20 12 -7 31 34 24 55 -8 25 -63 73 -70 61 -3 -6 -2 -10 2
-10 5 0 18 -7 29 -15 17 -14 16 -14 -13 0 -18 8 -40 15 -50 16 -14 0 -14 2 -3
6 8 2 22 7 30 10 8 4 20 7 25 7 22 2 16 54 -10 85 -32 37 -73 41 -100 11z"/>
<path d="M3103 1513 c-21 -4 -41 -38 -29 -50 3 -4 6 1 6 10 0 33 15 23 17 -11
1 -27 -1 -33 -8 -22 -9 13 -10 13 -7 0 3 -8 22 -19 43 -25 35 -8 39 -7 62 20
l24 30 -12 -27 c-7 -16 -15 -28 -19 -28 -3 0 -7 -17 -8 -37 -2 -21 -5 -40 -9
-43 -3 -3 -4 12 -1 32 3 33 1 37 -24 40 -15 3 -25 1 -22 -4 3 -4 12 -8 20 -8
9 0 14 -11 14 -34 0 -37 36 -76 69 -76 9 1 1 7 -16 15 -46 20 -41 25 7 9 43
-15 87 -10 135 14 29 15 30 14 15 -4 -14 -19 -14 -19 7 0 13 10 25 27 28 37 7
21 -12 62 -25 54 -5 -3 -12 0 -16 6 -4 7 -3 9 4 5 6 -3 13 -2 17 4 3 5 -1 10
-9 10 -9 0 -34 9 -56 21 -27 14 -49 19 -66 15 -15 -4 -23 -3 -20 3 3 5 -12 18
-34 30 -41 21 -46 22 -87 14z"/>
<path d="M830 1371 c-37 -37 -38 -53 -2 -89 15 -15 20 -19 12 -9 -15 20 -15
20 13 2 25 -16 29 -16 51 -1 14 8 27 28 29 43 2 16 4 6 5 -22 0 -36 -2 -44 -8
-30 -5 11 -9 15 -9 8 -2 -20 11 -43 20 -37 5 3 6 -1 3 -9 -3 -10 5 -16 26 -21
38 -7 93 14 135 52 l30 27 -25 -29 c-31 -36 -103 -69 -133 -61 -20 5 -20 5 -4
-6 15 -8 28 -7 62 6 46 17 125 94 125 120 0 22 -66 89 -75 76 -3 -6 -2 -11 2
-11 5 0 18 -7 29 -15 12 -10 3 -8 -26 5 -57 25 -77 25 -118 0 -19 -12 -31 -16
-27 -10 3 5 -1 10 -10 10 -10 0 -13 -5 -9 -12 6 -9 3 -9 -9 1 -10 8 -31 12
-52 9 -36 -4 -36 7 0 14 14 2 16 6 7 11 -8 5 -23 -3 -42 -22z"/>
<path d="M1186 1245 c-19 -20 -38 -41 -43 -46 -4 -5 -20 -19 -35 -30 -25 -18
-41 -48 -19 -35 5 3 11 -10 13 -28 2 -19 0 -32 -4 -30 -4 3 -8 15 -8 26 0 12
-3 19 -6 15 -4 -3 -4 -17 0 -30 4 -18 14 -26 38 -30 18 -2 40 -1 49 4 13 6 15
0 14 -38 0 -40 -4 -47 -30 -59 -26 -11 -27 -12 -5 -8 14 3 34 4 45 4 69 -5
117 -1 145 14 18 9 35 14 37 12 2 -2 -13 -12 -34 -22 -27 -13 -62 -18 -119
-18 -75 -1 -83 -3 -115 -31 -24 -21 -35 -40 -37 -65 -2 -19 -11 -40 -20 -47
-15 -11 -15 -12 4 -13 12 0 42 -12 68 -26 33 -19 54 -24 74 -20 20 5 23 4 12
-4 -8 -5 -10 -10 -4 -10 18 0 37 28 28 41 -4 7 -3 9 3 6 6 -4 14 0 17 9 14 36
1 149 -14 124 -5 -8 -9 -8 -13 2 -3 8 0 15 6 15 7 0 36 5 65 12 89 22 142 95
95 132 -15 12 -16 12 -8 -1 5 -8 -8 0 -28 17 -45 39 -80 50 -113 34 -31 -14
-44 -14 -44 -1 0 5 8 6 18 3 15 -6 15 -5 4 10 -8 9 -17 16 -20 15 -4 -1 -19 4
-33 11 -20 10 -32 10 -50 1 -23 -11 -23 -10 -5 4 11 9 26 16 33 16 7 0 13 6
13 14 0 8 4 18 10 21 6 4 7 -2 1 -18 -8 -21 -5 -26 28 -40 21 -10 50 -17 65
-17 16 0 44 -8 63 -17 40 -19 60 -12 80 28 9 17 13 19 13 7 0 -9 -13 -27 -29
-41 -17 -14 -28 -27 -25 -30 6 -6 64 52 64 63 0 4 -5 21 -11 38 -8 23 -18 31
-45 37 -23 4 -42 2 -52 -7 -9 -7 -14 -9 -10 -4 8 10 -38 51 -70 60 -18 6 -29
0 -56 -29z"/>
<path d="M741 1244 c-30 -25 -44 -53 -18 -38 9 6 9 5 0 -7 -10 -12 -10 -18 0
-29 6 -7 0 -5 -15 5 -26 16 -30 16 -52 1 -16 -10 -26 -28 -29 -48 l-4 -33 -1
32 c-2 38 39 77 72 68 17 -5 18 -4 6 4 -21 15 -25 14 -59 -15 -36 -30 -43 -82
-14 -105 9 -8 14 -9 10 -2 -5 8 0 9 23 0 26 -10 32 -8 58 16 15 15 34 27 41
27 7 0 9 5 6 10 -4 6 -10 8 -15 5 -5 -3 -11 -1 -14 4 -12 19 12 20 29 1 10
-11 26 -20 36 -20 10 0 31 -12 48 -26 26 -22 37 -25 70 -19 29 5 40 12 45 28
4 20 4 20 -8 5 -11 -15 -13 -13 -14 20 0 30 1 33 9 17 8 -18 8 -18 6 4 -3 32
-48 65 -76 56 -11 -3 -21 -11 -21 -18 0 -8 3 -8 12 1 16 16 30 15 54 -3 18
-14 17 -14 -8 -4 -24 10 -31 9 -49 -7 -12 -10 -25 -28 -30 -39 -7 -18 -8 -18
-8 -2 -1 12 -6 16 -13 11 -8 -4 -10 -3 -5 2 5 5 12 9 15 9 22 1 32 17 21 37
-8 15 -8 19 0 14 6 -4 11 -3 11 3 0 13 -59 61 -75 61 -7 0 -27 -12 -44 -26z"/>
<path d="M1928 1203 c-15 -14 -39 -27 -54 -29 -59 -6 -99 -90 -59 -124 13 -11
12 -15 -5 -37 -27 -35 -25 -46 15 -82 42 -37 65 -39 91 -8 19 22 19 22 -2 5
-28 -24 -48 -22 -81 8 l-28 25 33 -23 c32 -22 34 -22 62 -6 18 10 32 13 35 7
4 -5 10 -7 15 -4 4 3 13 -2 20 -10 16 -19 49 -19 80 1 l25 16 -24 -21 c-28
-26 -58 -27 -85 -3 -21 17 -21 17 -2 -5 26 -31 59 -29 101 8 33 29 49 59 23
43 -7 -4 -8 -3 -4 5 4 6 11 9 16 6 8 -5 40 55 40 75 0 5 -11 22 -25 38 -25 30
-71 47 -81 31 -3 -5 8 -9 24 -9 18 0 36 -9 48 -22 l19 -23 -21 18 c-16 13 -37
17 -93 16 -39 -1 -71 -6 -71 -11 0 -5 5 -6 12 -2 7 4 8 3 4 -4 -11 -18 -23
-14 -29 8 -3 11 -1 18 4 14 5 -3 9 0 9 5 0 6 -4 11 -10 11 -5 0 -10 8 -10 19
0 15 -7 18 -36 15 -19 -1 -43 -8 -52 -15 -16 -12 -16 -12 -1 5 9 10 30 19 45
19 16 1 34 8 39 15 7 9 10 5 12 -15 2 -51 59 -73 101 -40 37 29 -11 94 -63 85
-13 -3 -22 -1 -19 3 19 32 100 -13 107 -59 l4 -27 2 27 c1 18 -8 34 -30 52
-39 33 -68 33 -101 -1z"/>
<path d="M2309 1140 c-17 -16 -28 -34 -25 -39 3 -5 -3 -7 -14 -4 -11 3 -32 -3
-47 -13 -25 -15 -26 -15 -14 -1 7 10 28 21 45 26 23 7 26 9 9 10 -12 1 -36
-11 -53 -25 -26 -22 -31 -33 -28 -63 2 -20 8 -36 15 -36 6 0 15 -3 19 -8 4 -4
24 -5 43 -2 39 6 24 -3 -39 -23 -30 -10 -33 -10 -17 2 10 8 14 17 9 19 -4 3
-16 -8 -26 -24 -20 -34 -14 -84 9 -76 7 3 19 -1 25 -9 13 -15 42 -19 54 -7 13
14 56 10 69 -6 11 -14 10 -15 -8 -1 -20 15 -20 14 -1 -8 20 -23 32 -30 20 -11
-4 7 0 9 13 5 13 -4 34 3 59 20 30 20 35 22 21 6 -10 -11 -32 -26 -48 -32 -16
-7 -28 -15 -25 -17 7 -7 48 17 79 45 27 26 38 50 15 36 -7 -4 -8 -3 -4 5 4 6
11 9 16 6 11 -7 30 27 29 52 0 16 -1 16 -9 -2 -7 -17 -9 -15 -9 11 -1 17 -8
38 -17 45 -19 15 -87 18 -123 5 -16 -6 -21 -5 -17 3 4 6 3 11 -3 11 -5 0 -11
-8 -13 -17 -3 -15 -5 -14 -10 4 -5 19 -2 21 27 17 51 -6 85 10 85 41 0 15 4
24 10 20 23 -14 7 15 -21 39 -40 34 -64 33 -100 -4z"/>
<path d="M3090 1131 c-49 -7 -101 -36 -78 -43 7 -3 -12 -3 -42 0 -53 4 -56 3
-69 -24 -10 -24 -10 -31 6 -52 30 -40 68 -58 95 -44 22 10 21 11 -7 6 -21 -3
-37 2 -55 17 l-25 21 28 -16 c39 -24 100 -13 91 16 -8 25 -8 87 0 95 3 4 6
-17 6 -45 0 -48 2 -52 27 -58 33 -9 72 12 92 47 12 22 12 31 2 58 -8 17 -16
30 -20 30 -3 -1 -26 -5 -51 -8z"/>
<path d="M721 1084 c-16 -21 -27 -25 -48 -21 -25 5 -26 4 -9 -9 10 -7 23 -11
27 -8 5 3 4 -7 -1 -21 -6 -15 -7 -31 -4 -37 5 -7 2 -8 -6 -3 -24 15 -4 -18 24
-39 21 -16 42 -21 91 -21 66 0 94 14 117 60 6 11 -3 5 -18 -13 -42 -48 -138
-57 -190 -17 -16 12 -12 12 21 -1 44 -18 125 -15 150 6 8 7 15 27 15 44 0 25
2 28 11 16 9 -12 10 -12 5 4 -4 12 0 23 11 31 16 12 14 13 -10 8 -16 -3 -24
-10 -20 -17 4 -6 -9 6 -29 27 -29 31 -42 37 -76 37 -32 0 -45 -6 -61 -26z"/>
<path d="M996 989 c-31 -24 -36 -76 -8 -85 50 -17 74 -28 64 -32 -7 -2 -9 -9
-6 -14 4 -7 2 -8 -5 -4 -6 4 -9 11 -6 16 10 17 -47 21 -74 5 l-26 -16 24 20
c13 12 19 21 13 21 -17 0 -52 -51 -52 -74 0 -31 11 -43 47 -50 33 -8 80 1 69
12 -3 3 1 13 9 22 8 9 16 31 17 49 2 24 12 41 34 59 28 22 31 28 21 49 -5 13
-15 23 -20 23 -5 0 -3 -8 4 -17 13 -17 13 -17 -7 0 -24 20 -56 22 -87 6 -18
-9 -20 -9 -10 2 7 7 32 16 55 20 l43 6 -36 2 c-23 1 -46 -7 -63 -20z"/>
<path d="M1475 919 c-33 -31 -56 -63 -61 -82 -6 -27 -2 -35 28 -62 19 -18 32
-38 30 -45 -3 -7 -1 -10 4 -7 5 3 9 -6 9 -19 0 -22 -1 -23 -12 -7 -9 11 -13
12 -13 4 0 -16 69 -81 86 -81 7 0 25 11 41 24 20 17 37 23 55 19 51 -10 106
44 94 92 -4 14 -11 23 -16 20 -5 -3 -11 -1 -15 5 -6 10 -64 14 -87 5 -9 -4
-12 -21 -10 -59 3 -48 1 -55 -24 -75 -34 -26 -46 -26 -70 1 l-19 21 28 -18
c25 -16 29 -16 51 -1 21 13 25 24 24 65 0 40 -3 49 -15 44 -8 -3 -10 -8 -5
-12 6 -3 -12 -6 -39 -6 -27 0 -49 3 -49 8 0 4 -6 7 -13 7 -22 0 -59 46 -54 67
4 16 5 15 6 -3 2 -32 35 -56 86 -62 37 -4 52 0 75 17 16 11 36 21 45 21 9 0
13 5 10 10 -4 6 -11 8 -16 5 -5 -3 -6 1 -3 9 3 8 1 30 -5 50 -5 20 -6 34 -1
31 5 -3 11 -23 15 -45 8 -47 26 -60 75 -52 38 5 50 16 50 48 0 19 -47 74 -64
74 -4 0 3 -10 16 -22 13 -13 16 -17 6 -9 -9 7 -31 11 -47 9 -25 -4 -37 2 -63
29 -45 46 -69 43 -133 -18z"/>
<path d="M2669 947 c-14 -7 -34 -19 -44 -27 -11 -9 -16 -10 -11 -2 11 19 -9
14 -27 -6 -22 -24 -22 -38 1 -21 14 11 13 10 -2 -9 -21 -24 -32 -29 -20 -9 6
9 4 9 -8 -1 -36 -29 -29 -99 10 -102 9 -1 45 -2 79 -3 33 -1 59 -5 56 -9 -2
-5 -1 -13 3 -20 5 -8 10 -6 15 8 5 12 7 1 7 -31 0 -27 -3 -39 -5 -25 -10 52
-68 79 -102 48 -8 -7 -11 -8 -8 -2 4 6 -6 16 -21 23 -22 9 -24 9 -11 -1 11 -9
14 -24 11 -49 -3 -30 1 -40 28 -62 38 -32 70 -34 95 -7 10 11 28 20 39 21 21
0 21 1 1 9 -18 8 -17 9 6 9 61 2 89 13 95 38 4 13 2 35 -4 48 -10 22 -16 24
-62 20 -28 -3 -56 -8 -62 -11 -7 -4 -8 -2 -4 4 4 7 18 12 32 12 15 0 23 4 19
11 -4 6 -13 8 -19 6 -9 -4 -11 2 -8 19 2 13 -1 37 -6 54 -8 22 -8 29 0 24 6
-4 9 -1 6 7 -3 8 -9 14 -14 15 -21 2 -44 17 -38 25 6 11 6 11 -27 -4z"/>
<path d="M1885 840 c-14 -6 -8 -7 20 -4 32 5 44 2 55 -13 14 -16 13 -17 -2 -5
-11 9 -29 11 -55 6 -21 -4 -40 -5 -41 -3 -2 2 -11 -9 -19 -25 -12 -22 -12 -31
-2 -40 9 -8 10 -8 5 1 -4 7 -2 21 4 30 11 17 11 17 5 -1 -7 -24 30 -66 59 -67
21 0 21 -1 1 -9 -14 -6 -16 -9 -5 -10 8 -2 18 -2 23 -1 4 0 7 -12 7 -29 0 -55
97 -109 143 -80 20 12 21 12 7 -4 -10 -14 -24 -17 -52 -13 -29 4 -38 1 -41
-12 -2 -9 -3 -6 -2 5 2 23 -55 62 -73 50 -17 -10 -23 11 -7 24 8 7 15 18 15
24 0 15 -54 56 -73 56 -19 0 -44 -30 -50 -60 l-4 -25 -2 26 c-1 26 34 69 58
69 7 0 9 5 5 11 -4 7 -19 -2 -40 -22 -45 -43 -45 -77 -1 -116 17 -15 37 -42
42 -58 23 -65 104 -71 135 -10 13 25 20 29 46 27 25 -2 37 3 59 29 24 30 27
39 23 96 -3 52 -9 68 -33 93 -29 31 -58 37 -85 20 -10 -7 -4 -8 20 -4 29 5 39
1 55 -18 l20 -23 -21 18 c-32 27 -63 21 -105 -22 -22 -21 -39 -36 -39 -33 0 3
14 20 31 38 l30 31 -26 32 c-27 31 -52 37 -90 21z"/>
<path d="M1274 734 c-19 -20 -32 -40 -29 -44 3 -5 -10 -3 -29 5 -34 14 -35 14
-64 -20 -33 -37 -33 -62 -2 -90 14 -12 17 -26 13 -50 -5 -29 0 -39 25 -65 29
-29 74 -40 86 -22 3 5 -7 7 -22 5 -15 -3 -36 3 -47 11 -18 14 -18 14 13 3 44
-16 65 -1 73 52 3 23 3 43 1 46 -10 9 -88 5 -100 -5 -6 -6 -10 -7 -7 -4 2 4
-6 15 -18 26 l-22 19 22 -13 c18 -10 29 -10 53 -1 17 6 28 7 24 2 -3 -5 6 -9
19 -9 14 0 30 -7 37 -15 17 -21 68 -19 115 5 40 19 40 19 16 0 -13 -11 -19
-20 -14 -20 19 0 53 47 53 73 0 44 -105 147 -151 147 -6 0 -27 -16 -45 -36z"/>
<path d="M2277 723 c-31 -34 -57 -92 -57 -131 0 -41 35 -82 69 -82 23 0 30 -5
34 -27 6 -29 51 -63 83 -63 21 0 74 48 74 67 0 7 6 13 13 13 15 1 62 39 55 45
-3 3 -13 -4 -23 -15 -10 -11 -29 -20 -41 -20 -18 0 -22 -4 -18 -17 5 -15 4
-15 -4 -3 -6 8 -9 17 -6 21 2 4 -2 10 -8 12 -7 3 2 3 20 0 25 -4 38 -1 55 15
12 11 27 21 32 22 17 2 7 52 -16 76 -12 13 -25 22 -27 19 -3 -3 3 -12 14 -21
18 -14 18 -14 -5 -3 -20 9 -30 8 -62 -11 l-39 -21 1 23 c0 13 3 17 6 11 2 -7
9 -13 14 -13 6 0 -7 20 -28 45 -21 25 -38 50 -38 56 0 14 -26 29 -51 29 -11 0
-32 -12 -47 -27z"/>
<path d="M1575 573 c-44 -11 -82 -63 -66 -90 7 -13 3 -25 -15 -46 -13 -16 -24
-39 -24 -51 0 -26 35 -76 53 -76 6 0 2 7 -9 15 -18 14 -17 14 9 5 16 -6 32 -8
37 -5 13 8 18 -8 9 -35 -7 -24 -7 -24 -8 -2 -1 12 -5 22 -10 22 -14 0 0 -43
22 -68 21 -23 61 -29 86 -13 10 6 1 8 -25 4 -31 -4 -43 -1 -54 13 -14 17 -14
18 2 5 13 -9 31 -11 63 -7 37 6 46 12 51 32 5 18 13 24 34 24 40 0 80 50 80
100 0 50 -15 88 -48 123 -29 30 -49 34 -78 12 -17 -13 -16 -13 14 -2 29 10 34
9 55 -13 18 -20 19 -22 1 -7 -31 26 -52 21 -98 -24 -35 -34 -41 -47 -38 -70 2
-16 -1 -36 -8 -44 -10 -12 -10 -15 2 -15 7 0 31 -9 53 -20 52 -27 90 -26 109
2 18 26 21 84 5 125 -8 22 -8 25 2 16 7 -7 14 -36 17 -65 3 -43 0 -58 -18 -80
-26 -34 -58 -36 -118 -6 -36 17 -48 19 -63 9 -12 -7 -19 -7 -19 -1 0 5 5 10
11 10 5 0 8 4 4 9 -3 5 -1 12 5 16 16 10 12 35 -7 42 -10 3 -26 12 -35 20 -13
12 -21 12 -40 3 l-23 -13 20 20 c14 15 25 18 37 12 31 -16 54 -9 88 26 19 19
31 36 27 36 -4 1 -11 2 -16 3 -5 0 -13 5 -18 10 -5 5 -3 6 5 2 6 -4 12 -2 12
3 0 11 -26 16 -70 12 -30 -2 -63 -38 -55 -60 5 -12 3 -13 -5 -5 -9 9 -9 17 -1
31 16 32 38 45 76 46 21 1 30 4 22 9 -6 4 -14 7 -17 7 -3 -1 -14 -4 -25 -6z"/>
<path d="M2083 509 c-51 -25 -103 -81 -103 -111 0 -21 54 -91 64 -81 2 3 -8
16 -25 30 -28 24 -39 66 -21 77 5 3 7 -8 4 -23 -3 -22 3 -33 23 -50 15 -11 35
-21 44 -22 16 0 -23 -21 -44 -23 -5 -1 -11 -10 -13 -21 -3 -16 -1 -17 7 -5 9
12 11 11 11 -8 0 -13 -4 -20 -10 -17 -24 15 -7 -16 24 -43 36 -32 64 -33 87
-6 10 12 7 12 -16 0 -31 -16 -51 -10 -76 21 -10 13 -7 12 14 -4 26 -20 61 -21
73 -2 3 5 18 2 34 -6 33 -17 59 -19 80 -5 10 7 4 8 -20 4 -26 -4 -42 -1 -60
14 -22 17 -23 22 -12 53 l12 34 -6 -37 c-6 -46 18 -63 76 -53 30 5 41 13 50
35 7 16 9 34 5 40 -4 6 5 24 20 40 26 27 32 70 10 71 -16 1 -45 31 -39 40 9
15 -23 22 -43 10 -15 -9 -13 -10 12 -6 l30 6 -32 -15 c-23 -10 -33 -22 -34
-38 -1 -19 -2 -19 -6 -4 -3 10 0 23 6 29 20 20 -39 97 -74 97 -5 0 -29 -9 -52
-21z"/>
<path d="M1801 307 c-37 -18 -62 -58 -54 -85 4 -15 8 -19 13 -12 5 8 9 7 13
-5 4 -9 3 -14 -2 -10 -11 6 -71 -42 -71 -57 0 -6 9 1 21 16 26 33 53 33 91 1
19 -16 42 -25 63 -25 19 0 37 -4 40 -10 4 -6 -1 -7 -12 -3 -16 6 -17 5 -3 -13
14 -18 14 -18 -6 -2 -11 10 -28 18 -37 18 -8 0 -29 11 -45 25 -52 43 -91 29
-93 -34 -1 -33 -2 -34 -9 -11 l-8 25 -1 -27 c-2 -42 74 -90 93 -59 3 4 -5 6
-17 4 -12 -2 -31 3 -42 12 -19 15 -19 15 6 4 20 -8 32 -8 50 1 13 7 21 9 17 5
-4 -5 -2 -15 5 -23 9 -13 9 -14 0 -8 -19 11 -16 -9 4 -25 15 -12 16 -12 8 1
-6 12 -5 13 6 3 17 -17 71 -17 88 0 11 10 12 9 6 -3 -8 -13 -7 -13 8 -1 19 15
24 36 6 25 -8 -5 -8 -1 0 14 8 16 7 21 -4 26 -8 3 -15 11 -15 17 0 7 10 3 23
-9 26 -25 56 -28 77 -10 12 11 12 10 0 -5 -9 -13 -23 -17 -42 -15 -15 3 -28 1
-28 -4 0 -4 13 -8 28 -8 62 0 96 86 50 126 -17 14 -19 15 -10 2 12 -15 11 -16
-17 -5 -27 10 -33 8 -57 -13 -26 -24 -26 -24 -13 -2 8 12 28 27 44 31 17 5 25
10 20 10 -6 1 -9 18 -7 40 3 32 -1 42 -23 60 -15 11 -33 21 -39 21 -6 -1 1 -8
17 -16 39 -21 33 -26 -10 -7 -47 19 -125 13 -156 -13 l-22 -18 21 23 c16 17
38 26 80 31 57 7 58 7 14 9 -25 0 -56 -5 -69 -12z"/>
</g>
</svg>
