<?xml version="1.0" ?><!DOCTYPE svg  PUBLIC '-//W3C//DTD SVG 1.1//EN'  'http://www.w3.org/Graphics/SVG/1.1/DTD/svg11.dtd'><svg enable-background="new 0 0 64 64" height="64px" id="Layer_1" version="1.1" viewBox="0 0 64 64" width="64px" xml:space="preserve" xmlns="http://www.w3.org/2000/svg" xmlns:xlink="http://www.w3.org/1999/xlink"><g><g><path d="M32,35.559c9.806,0,17.759-7.949,17.759-17.757c0-9.81-7.953-17.76-17.759-17.76    c-9.808,0-17.76,7.95-17.76,17.76C14.24,27.609,22.192,35.559,32,35.559z M32,2.89c8.235,0,14.912,6.676,14.912,14.912    c0,8.234-6.677,14.911-14.912,14.911c-8.234,0-14.912-6.677-14.912-14.911C17.088,9.565,23.766,2.89,32,2.89z" fill="#241F20"/><path d="M55.759,18.633c-0.122-0.87-0.942-0.833-0.942-0.833h-0.441c-0.861-0.001-1.034,1.042-1.064,1.313    c-0.006,0.042-0.006,0.065-0.006,0.065l-0.024-0.007c-0.951,10.94-10.093,19.536-21.281,19.536    c-11.046,0-20.106-8.377-21.249-19.119c-0.012-0.056-0.022-0.106-0.033-0.171c-0.189-1.347-0.79-1.584-1.084-1.618H9.141    c-0.661,0-0.851,0.506-0.899,0.882c0.447,12.21,10.071,22.05,22.188,22.842v11.595L19.633,63.919l0.041,0.039l24.664-0.017    l0.031-0.028L33.57,53.118V41.523C45.703,40.729,55.334,30.861,55.759,18.633z" fill="#241F20"/></g><g><path d="M33.481,6.844C32.995,6.782,32.504,6.739,32,6.739c-6.403,0-11.595,5.19-11.595,11.595    c0,1.731,0.389,3.368,1.07,4.843L33.481,6.844z" fill="#241F20"/><path d="M37.803,8.306l-13.64,18.557c0.816,0.75,1.738,1.384,2.746,1.879L40.414,10.37    C39.648,9.562,38.771,8.867,37.803,8.306z" fill="#241F20"/><path d="M32.823,29.889c6.019-0.425,10.772-5.428,10.772-11.555c0-0.918-0.118-1.809-0.319-2.665L32.823,29.889z" fill="#241F20"/></g></g></svg>