<?xml version="1.0" encoding="UTF-8" standalone="no"?>
<svg
   xmlns:dc="http://purl.org/dc/elements/1.1/"
   xmlns:cc="http://creativecommons.org/ns#"
   xmlns:rdf="http://www.w3.org/1999/02/22-rdf-syntax-ns#"
   xmlns:svg="http://www.w3.org/2000/svg"
   xmlns="http://www.w3.org/2000/svg"
   id="svg40"
   version="1.1"
   width="510.9996pt"
   viewBox="0 -14 511.99699 482.42557"
   height="482.42557pt">
  <metadata
     id="metadata46">
    <rdf:RDF>
      <cc:Work
         rdf:about="">
        <dc:format>image/svg+xml</dc:format>
        <dc:type
           rdf:resource="http://purl.org/dc/dcmitype/StillImage" />
      </cc:Work>
    </rdf:RDF>
  </metadata>
  <defs
     id="defs44" />
  <path
     id="path2"
     d="m 309.49167,172.90755 c -1.125,0 -2.25782,-0.19141 -3.35157,-0.57812 l -50.14062,-17.83204 -50.14453,17.83204 c -3.10547,1.10546 -6.5586,0.60546 -9.22656,-1.33204 -2.66797,-1.94139 -4.21094,-5.07031 -4.1211,-8.36717 l 1.46485,-53.19923 -32.45313,-42.179685 c -2.01172,-2.609375 -2.60547,-6.050781 -1.58594,-9.1875 1.01953,-3.136719 3.51953,-5.566406 6.6836,-6.5 L 217.66354,36.51693 247.74948,-7.385414 c 1.86719,-2.71875 4.95312,-4.34375 8.25,-4.34375 3.29687,0 6.38281,1.625 8.25,4.34375 l 30.08594,43.902344 51.04687,15.046875 c 3.16406,0.933594 5.66406,3.363281 6.6836,6.5 1.01953,3.136719 0.42578,6.574219 -1.58594,9.1875 l -32.45313,42.183595 1.46485,53.19532 c 0.0898,3.29687 -1.45313,6.42967 -4.1211,8.36717 -1.73047,1.25783 -3.79687,1.91016 -5.8789,1.91016 z M 186.26901,66.622399 211.99167,100.05599 c 1.40234,1.82032 2.13281,4.07032 2.07031,6.37109 l -1.16016,42.16797 39.7461,-14.13281 c 2.16797,-0.76953 4.53515,-0.76953 6.70312,0 l 39.74219,14.13281 -1.15625,-42.16796 c -0.0664,-2.30078 0.66797,-4.55078 2.07031,-6.37109 L 325.72995,66.622399 285.26901,54.692711 c -2.20703,-0.648437 -4.12109,-2.039062 -5.42187,-3.9375 L 255.99948,15.958336 232.15182,50.755211 c -1.30078,1.898438 -3.21484,3.289063 -5.42187,3.9375 z m 0,0" />
  <path
     id="path4"
     d="m 401.7651,80.833336 c -2.08203,0 -4.14843,-0.652343 -5.8789,-1.910156 -2.66797,-1.9375 -4.21094,-5.066406 -4.11719,-8.363281 l 0.61328,-22.414063 -13.67187,-17.773437 c -2.01172,-2.613282 -2.60157,-6.050782 -1.58594,-9.1875 1.01953,-3.136719 3.51953,-5.566406 6.68359,-6.5 l 21.50782,-6.339844 12.67578,-18.496094 c 1.86719,-2.722656 4.95312,-4.347656 8.25,-4.347656 3.29687,0 6.38281,1.625 8.25,4.347656 l 12.67578,18.496094 21.50391,6.339844 c 3.16406,0.933594 5.66406,3.363281 6.6875,6.5 1.01562,3.136718 0.42578,6.574218 -1.58594,9.1875 l -13.67578,17.773437 0.61718,22.414063 c 0.0937,3.296875 -1.44921,6.425781 -4.11718,8.363281 -2.66797,1.9375 -6.1211,2.433594 -9.22657,1.332031 l -21.1289,-7.511718 -21.125,7.511718 c -1.09375,0.386719 -2.22656,0.578125 -3.35157,0.578125 z m 24.47657,-28.703125 c 1.13281,0 2.26562,0.191406 3.34765,0.578125 l 10.73047,3.8125 -0.3125,-11.382812 c -0.0664,-2.300781 0.66797,-4.550781 2.07031,-6.371094 l 6.94141,-9.027344 -10.92187,-3.21875 c -2.20313,-0.648437 -4.1211,-2.039062 -5.42188,-3.9375 l -6.4375,-9.394531 -6.4375,9.394531 c -1.30078,1.898438 -3.21484,3.285157 -5.42187,3.9375 l -10.92188,3.21875 6.94531,9.027344 c 1.39844,1.820313 2.13282,4.070313 2.06641,6.371094 l -0.3125,11.382812 10.73047,-3.8125 c 1.08984,-0.386719 2.21875,-0.578125 3.35547,-0.578125 z m 0,0" />
  <path
     id="path6"
     d="m 110.23386,80.833336 c -1.125,0 -2.25782,-0.191406 -3.35157,-0.578125 l -21.125001,-7.511718 -21.125,7.511718 C 61.522915,81.36068 58.073696,80.86068 55.401821,78.92318 52.733852,76.98568 51.194789,73.856774 51.284633,70.559899 L 51.901821,48.145836 38.226039,30.372399 c -2.011718,-2.613282 -2.601562,-6.050782 -1.582031,-9.1875 1.019531,-3.140625 3.519531,-5.570313 6.683594,-6.503906 L 64.831508,8.341149 77.507289,-10.154945 c 1.867188,-2.71875 4.953126,-4.34375 8.25,-4.34375 3.296876,0 6.382813,1.625 8.25,4.34375 l 12.675781,18.496094 21.50391,6.34375 c 3.16406,0.929687 5.66406,3.363281 6.68359,6.5 1.01953,3.136718 0.42578,6.574218 -1.58203,9.1875 l -13.67578,17.769531 0.61719,22.414063 c 0.0898,3.296874 -1.44922,6.429687 -4.11719,8.367187 -1.73047,1.257813 -3.79297,1.910156 -5.8789,1.910156 z M 85.757289,52.130211 c 1.132813,0 2.269532,0.191406 3.351563,0.578125 l 10.730469,3.8125 -0.3125,-11.382812 c -0.06641,-2.300781 0.667969,-4.550781 2.066409,-6.371094 l 6.94531,-9.027344 -10.921875,-3.21875 c -2.207032,-0.648437 -4.121094,-2.039062 -5.421876,-3.9375 l -6.4375,-9.394531 -6.4375,9.394531 c -1.300781,1.898438 -3.214843,3.285157 -5.421874,3.9375 l -10.921876,3.21875 6.945313,9.027344 c 1.402344,1.820313 2.132813,4.070313 2.070313,6.371094 l -0.3125,11.382812 10.730468,-3.8125 c 1.082032,-0.386719 2.214844,-0.578125 3.347656,-0.578125 z m 0,0" />
  <path
     id="path8"
     d="m 255.99948,399.00522 c -0.64844,0 -1.30859,-0.0703 -1.94922,-0.19923 -0.64062,-0.1211 -1.26953,-0.32031 -1.87109,-0.57031 -0.60938,-0.25 -1.19141,-0.5625 -1.73047,-0.92188 -0.55078,-0.35937 -1.0586,-0.77733 -1.51953,-1.23827 -0.46094,-0.46094 -0.87891,-0.96875 -1.23828,-1.51953 -0.36329,-0.53906 -0.67188,-1.1211 -0.92188,-1.73047 -0.25,-0.60156 -0.44922,-1.23048 -0.57031,-1.8711 -0.12891,-0.64063 -0.19922,-1.30079 -0.19922,-1.94921 0,-0.64844 0.0703,-1.30861 0.19922,-1.94923 0.12109,-0.64063 0.32031,-1.26952 0.57031,-1.87891 0.25,-0.60156 0.55859,-1.18359 0.92188,-1.72266 0.35937,-0.55078 0.77734,-1.05859 1.23828,-1.51953 0.46093,-0.46093 0.96875,-0.8789 1.51953,-1.23828 0.53906,-0.36327 1.12109,-0.67187 1.73047,-0.92187 0.60156,-0.25 1.23047,-0.44141 1.87109,-0.57031 1.28906,-0.25782 2.60938,-0.25782 3.89844,0 0.64062,0.12891 1.26953,0.32031 1.87109,0.57031 0.60938,0.25 1.1875,0.55859 1.72656,0.92187 0.55079,0.35938 1.0625,0.77736 1.52344,1.23828 0.46094,0.46094 0.87891,0.96875 1.23828,1.51953 0.35938,0.53907 0.67188,1.1211 0.92188,1.72266 0.25,0.60938 0.44922,1.23828 0.5664,1.87891 0.13282,0.64062 0.20313,1.30078 0.20313,1.94923 0,0.64843 -0.0703,1.3125 -0.20313,1.94921 -0.1289,0.64062 -0.3164,1.26954 -0.5664,1.8711 -0.25,0.60937 -0.5625,1.1914 -0.92188,1.73047 -0.35937,0.55078 -0.77734,1.05859 -1.23828,1.51953 -0.46094,0.46094 -0.97265,0.8789 -1.52344,1.23827 -0.53906,0.35938 -1.11718,0.67188 -1.72656,0.92188 -0.60156,0.25 -1.23047,0.44922 -1.87109,0.57031 -0.64063,0.1289 -1.30078,0.19923 -1.94922,0.19923 z m 0,0" />
  <path
     id="path10"
     d="m 255.99948,366.00522 c -5.52344,0 -10,-4.47657 -10,-10 V 191.0013 c 0,-5.51953 4.47656,-10 10,-10 5.52344,0 10,4.48047 10,10 v 165.00392 c 0,5.51952 -4.47656,10 -10,10 z m 0,0" />
  <path
     id="path12"
     d="m 425.74557,302.28255 c -0.52343,0 -1.04297,-0.0391 -1.5664,-0.125 -3.25781,-0.51562 -6.05078,-2.60156 -7.46875,-5.58202 l -17.97266,-37.8086 -37.80469,-17.97265 c -2.98047,-1.41406 -5.07031,-4.20703 -5.58593,-7.46485 -0.51563,-3.25782 0.60937,-6.5625 3.0039,-8.82813 l 30.40235,-28.77344 5.41015,-41.51172 c 0.42578,-3.26953 2.4375,-6.12109 5.375,-7.61717 2.94141,-1.5 6.42578,-1.44922 9.32422,0.12889 l 36.76172,20.01953 41.14844,-7.67967 c 3.24218,-0.60938 6.57422,0.42578 8.90625,2.75781 2.33203,2.33203 3.36328,5.66406 2.76172,8.90625 l -7.6836,41.14844 20.02344,36.76171 c 1.57422,2.89843 1.625,6.38672 0.125,9.32422 -1.49609,2.9375 -4.34766,4.94922 -7.61719,5.375 l -41.50781,5.41016 -28.77734,30.40234 c -1.90235,2.01563 -4.53516,3.12891 -7.25782,3.1289 z m -43.05078,-73.28516 27.84375,13.23438 c 2.07422,0.98828 3.75,2.66015 4.73828,4.73828 l 13.23438,27.83984 21.1875,-22.38672 c 1.58203,-1.67187 3.69141,-2.74609 5.97266,-3.04296 l 30.5664,-3.98438 -14.74609,-27.07031 c -1.09766,-2.01953 -1.46875,-4.35547 -1.04688,-6.61719 l 5.65625,-30.30469 -30.30078,5.66016 c -2.26172,0.41797 -4.59765,0.0508 -6.61719,-1.05078 l -27.07422,-14.74219 -3.98046,30.56641 c -0.29688,2.28125 -1.3711,4.39062 -3.04297,5.96875 z m 0,0" />
  <path
     id="path14"
     d="m 273.64792,468.86849 c -0.34766,0 -0.69141,-0.0156 -1.04297,-0.0508 -5.49219,-0.57032 -9.48438,-5.48438 -8.91797,-10.97657 6.55469,-63.40625 37.08203,-111.57422 61.53906,-140.8164 26.41016,-31.58594 51.38672,-48.3711 52.4336,-49.07032 4.59765,-3.05859 10.80468,-1.8164 13.86718,2.78516 3.0586,4.59375 1.8125,10.80469 -2.78515,13.86328 -0.94922,0.63281 -23.59766,15.85938 -48.17578,45.25 -22.66407,27.10547 -50.95313,71.66797 -56.98438,130.04688 -0.53125,5.14062 -4.875,8.96875 -9.93359,8.96875 z m 0,0" />
  <path
     id="path16"
     d="m 86.253383,302.28255 c -2.722656,0 -5.355468,-1.11327 -7.261718,-3.125 L 50.218227,268.75522 8.7065084,263.34505 c -3.269531,-0.42577 -6.121093,-2.4375 -7.617187,-5.37891 -1.49609403,-2.9375 -1.44921903,-6.42578 0.128906,-9.32031 L 21.237758,211.88411 13.558071,170.73177 c -0.609375,-3.24219 0.425781,-6.57422 2.757812,-8.90625 2.332032,-2.33203 5.664063,-3.36719 8.90625,-2.75781 l 41.148438,7.68359 36.761719,-20.02344 c 2.89844,-1.57812 6.38672,-1.625 9.32422,-0.12889 2.9375,1.49609 4.94922,4.34764 5.375,7.61717 l 5.41016,41.51172 30.40625,28.77344 c 2.39453,2.26953 3.51562,5.57031 3,8.82813 -0.51563,3.25781 -2.60547,6.05078 -5.58203,7.46875 l -37.8086,17.97265 -17.968751,37.80469 c -1.417968,2.97656 -4.210937,5.06641 -7.46875,5.58203 -0.523437,0.0859 -1.046874,0.125 -1.566406,0.125 z m -60.492187,-56.88671 30.566406,3.98438 c 2.28125,0.29687 4.390625,1.37108 5.96875,3.04297 l 21.191406,22.38671 13.234375,-27.83984 c 0.988282,-2.07812 2.660156,-3.75 4.738287,-4.73828 L 129.30026,228.9974 106.91354,207.806 c -1.67187,-1.57813 -2.74609,-3.6875 -3.04297,-5.96875 l -3.984374,-30.56641 -27.070313,14.7461 c -2.019531,1.09765 -4.359375,1.46875 -6.617187,1.04687 l -30.304688,-5.65625 5.65625,30.30078 c 0.425781,2.26172 0.05469,4.60156 -1.046875,6.61719 z m 0,0" />
  <path
     id="path18"
     d="m 238.35104,468.86849 c -5.0625,0 -9.40234,-3.82813 -9.93359,-8.97266 -6.03516,-58.37891 -34.32031,-102.9375 -56.98438,-130.04297 -24.5664,-29.375 -47.22656,-44.61719 -48.17968,-45.25 -4.59766,-3.0625 -5.84375,-9.27344 -2.78125,-13.86719 3.0625,-4.59765 9.26953,-5.84375 13.86718,-2.78125 1.05078,0.69922 26.03907,17.50391 52.4336,49.07032 24.45703,29.24218 54.98437,77.41015 61.53906,140.8164 0.56641,5.49219 -3.42578,10.40625 -8.92188,10.97266 -0.34765,0.0391 -0.69531,0.0547 -1.03906,0.0547 z m 0,0" />
  <path
     id="path20"
     d="m 334.55807,467.00522 c -1.39453,0 -2.8125,-0.29298 -4.16406,-0.91017 -5.01953,-2.30469 -7.22265,-8.23827 -4.91797,-13.26172 15.26563,-33.28516 40.71094,-53.82422 59.36719,-65.19531 19.76953,-12.05078 35.83203,-16.52344 37.59766,-16.9961 5.33984,-1.42187 10.8164,1.75 12.23828,7.08594 1.42187,5.33594 -1.75,10.81641 -7.08594,12.23828 -0.14453,0.0391 -14.67969,3.98438 -32.34375,14.75 -16.27344,9.91797 -38.4375,27.76563 -51.59766,56.45703 -1.67968,3.66797 -5.30468,5.83204 -9.09375,5.83205 z m 0,0" />
  <path
     id="path22"
     d="m 186.92135,467.00522 c -3.78906,0 -7.41406,-2.16407 -9.09765,-5.83204 -13.15625,-28.6914 -35.32031,-46.53907 -51.59766,-56.45704 -17.66015,-10.76562 -32.199219,-14.71093 -32.343751,-14.75 -5.335937,-1.42578 -8.507812,-6.90234 -7.082031,-12.23828 1.421875,-5.33593 6.902344,-8.50781 12.238281,-7.08593 1.769531,0.47266 17.835941,4.95312 37.597661,16.9961 18.65625,11.37108 44.10156,31.91015 59.36719,65.19531 2.30468,5.02344 0.10156,10.95702 -4.92188,13.26172 -1.35156,0.61719 -2.76562,0.91016 -4.16016,0.91016 z m 0,0" />
  <path
     id="path24"
     d="m 465.84323,339.98958 c -5.51953,0 -10,-4.47656 -10,-10 v -8.32422 c 0,-5.52344 4.48047,-10 10,-10 5.52344,0 10,4.47656 10,10 v 8.32422 c 0,5.52344 -4.47656,10 -10,10 z m 0,0" />
  <path
     id="path26"
     d="m 465.84323,385.14193 c -5.51953,0 -10,-4.48046 -10,-10 v -8.32813 c 0,-5.51952 4.48047,-10 10,-10 5.52344,0 10,4.48048 10,10 v 8.32813 c 0,5.51954 -4.47656,10 -10,10 z m 0,0" />
  <path
     id="path28"
     d="m 492.58151,358.40364 h -8.32422 c -5.51953,0 -10,-4.48047 -10,-10 0,-5.52343 4.48047,-10 10,-10 h 8.32422 c 5.52344,0 10,4.47657 10,10 0,5.51953 -4.47656,10 -10,10 z m 0,0" />
  <path
     id="path30"
     d="m 447.43307,358.40364 h -8.32422 c -5.52343,0 -10,-4.48047 -10,-10 0,-5.52343 4.47657,-10 10,-10 h 8.32422 c 5.52344,0 10,4.47657 10,10 0,5.51953 -4.47656,10 -10,10 z m 0,0" />
  <path
     id="path32"
     d="m 46.151821,339.98958 c -5.523438,0 -10,-4.47656 -10,-10 v -8.32422 c 0,-5.52344 4.476562,-10 10,-10 5.523437,0 10,4.47656 10,10 v 8.32422 c 0,5.52344 -4.476563,10 -10,10 z m 0,0" />
  <path
     id="path34"
     d="m 46.151821,385.14193 c -5.523438,0 -10,-4.48046 -10,-10 v -8.32813 c 0,-5.51952 4.476562,-10 10,-10 5.523437,0 10,4.48048 10,10 v 8.32813 c 0,5.51954 -4.476563,10 -10,10 z m 0,0" />
  <path
     id="path36"
     d="m 72.890102,358.40364 h -8.324219 c -5.523437,0 -10,-4.48047 -10,-10 0,-5.52343 4.476563,-10 10,-10 h 8.324219 c 5.523437,0 10,4.47657 10,10 0,5.51953 -4.476563,10 -10,10 z m 0,0" />
  <path
     id="path38"
     d="m 27.741665,358.40364 h -8.328126 c -5.519531,0 -9.9999996,-4.48047 -9.9999996,-10 0,-5.52343 4.4804686,-10 9.9999996,-10 h 8.328126 c 5.523437,0 10,4.47657 10,10 0,5.51953 -4.476563,10 -10,10 z m 0,0" />
</svg>
